%TF.GenerationSoftware,KiCad,Pcbnew,(5.1.10)-1*%
%TF.CreationDate,2022-01-11T17:46:35-08:00*%
%TF.ProjectId,lowering platform,6c6f7765-7269-46e6-9720-706c6174666f,rev?*%
%TF.SameCoordinates,Original*%
%TF.FileFunction,Legend,Bot*%
%TF.FilePolarity,Positive*%
%FSLAX46Y46*%
G04 Gerber Fmt 4.6, Leading zero omitted, Abs format (unit mm)*
G04 Created by KiCad (PCBNEW (5.1.10)-1) date 2022-01-11 17:46:35*
%MOMM*%
%LPD*%
G01*
G04 APERTURE LIST*
%ADD10C,0.150000*%
%ADD11C,0.120000*%
%ADD12C,0.010000*%
G04 APERTURE END LIST*
D10*
X162829047Y-88828571D02*
X162686190Y-88876190D01*
X162638571Y-88923809D01*
X162590952Y-89019047D01*
X162590952Y-89161904D01*
X162638571Y-89257142D01*
X162686190Y-89304761D01*
X162781428Y-89352380D01*
X163162380Y-89352380D01*
X163162380Y-88352380D01*
X162829047Y-88352380D01*
X162733809Y-88400000D01*
X162686190Y-88447619D01*
X162638571Y-88542857D01*
X162638571Y-88638095D01*
X162686190Y-88733333D01*
X162733809Y-88780952D01*
X162829047Y-88828571D01*
X163162380Y-88828571D01*
X162257619Y-88685714D02*
X162019523Y-89352380D01*
X161781428Y-88685714D02*
X162019523Y-89352380D01*
X162114761Y-89590476D01*
X162162380Y-89638095D01*
X162257619Y-89685714D01*
X161400476Y-89257142D02*
X161352857Y-89304761D01*
X161400476Y-89352380D01*
X161448095Y-89304761D01*
X161400476Y-89257142D01*
X161400476Y-89352380D01*
X161400476Y-88733333D02*
X161352857Y-88780952D01*
X161400476Y-88828571D01*
X161448095Y-88780952D01*
X161400476Y-88733333D01*
X161400476Y-88828571D01*
X160210000Y-89066666D02*
X159733809Y-89066666D01*
X160305238Y-89352380D02*
X159971904Y-88352380D01*
X159638571Y-89352380D01*
X159305238Y-89257142D02*
X159257619Y-89304761D01*
X159305238Y-89352380D01*
X159352857Y-89304761D01*
X159305238Y-89257142D01*
X159305238Y-89352380D01*
X158162380Y-88352380D02*
X157495714Y-88352380D01*
X158162380Y-89352380D01*
X157495714Y-89352380D01*
X157114761Y-89352380D02*
X157114761Y-88352380D01*
X156686190Y-89352380D02*
X156686190Y-88828571D01*
X156733809Y-88733333D01*
X156829047Y-88685714D01*
X156971904Y-88685714D01*
X157067142Y-88733333D01*
X157114761Y-88780952D01*
X155781428Y-89352380D02*
X155781428Y-88828571D01*
X155829047Y-88733333D01*
X155924285Y-88685714D01*
X156114761Y-88685714D01*
X156210000Y-88733333D01*
X155781428Y-89304761D02*
X155876666Y-89352380D01*
X156114761Y-89352380D01*
X156210000Y-89304761D01*
X156257619Y-89209523D01*
X156257619Y-89114285D01*
X156210000Y-89019047D01*
X156114761Y-88971428D01*
X155876666Y-88971428D01*
X155781428Y-88923809D01*
X155305238Y-88685714D02*
X155305238Y-89352380D01*
X155305238Y-88780952D02*
X155257619Y-88733333D01*
X155162380Y-88685714D01*
X155019523Y-88685714D01*
X154924285Y-88733333D01*
X154876666Y-88828571D01*
X154876666Y-89352380D01*
X153971904Y-88685714D02*
X153971904Y-89495238D01*
X154019523Y-89590476D01*
X154067142Y-89638095D01*
X154162380Y-89685714D01*
X154305238Y-89685714D01*
X154400476Y-89638095D01*
X153971904Y-89304761D02*
X154067142Y-89352380D01*
X154257619Y-89352380D01*
X154352857Y-89304761D01*
X154400476Y-89257142D01*
X154448095Y-89161904D01*
X154448095Y-88876190D01*
X154400476Y-88780952D01*
X154352857Y-88733333D01*
X154257619Y-88685714D01*
X154067142Y-88685714D01*
X153971904Y-88733333D01*
X152448095Y-88352380D02*
X152448095Y-89066666D01*
X152495714Y-89209523D01*
X152590952Y-89304761D01*
X152733809Y-89352380D01*
X152829047Y-89352380D01*
X151971904Y-89352380D02*
X151971904Y-88685714D01*
X151971904Y-88352380D02*
X152019523Y-88400000D01*
X151971904Y-88447619D01*
X151924285Y-88400000D01*
X151971904Y-88352380D01*
X151971904Y-88447619D01*
X151067142Y-89352380D02*
X151067142Y-88828571D01*
X151114761Y-88733333D01*
X151210000Y-88685714D01*
X151400476Y-88685714D01*
X151495714Y-88733333D01*
X151067142Y-89304761D02*
X151162380Y-89352380D01*
X151400476Y-89352380D01*
X151495714Y-89304761D01*
X151543333Y-89209523D01*
X151543333Y-89114285D01*
X151495714Y-89019047D01*
X151400476Y-88971428D01*
X151162380Y-88971428D01*
X151067142Y-88923809D01*
X150590952Y-88685714D02*
X150590952Y-89352380D01*
X150590952Y-88780952D02*
X150543333Y-88733333D01*
X150448095Y-88685714D01*
X150305238Y-88685714D01*
X150210000Y-88733333D01*
X150162380Y-88828571D01*
X150162380Y-89352380D01*
X149257619Y-88685714D02*
X149257619Y-89495238D01*
X149305238Y-89590476D01*
X149352857Y-89638095D01*
X149448095Y-89685714D01*
X149590952Y-89685714D01*
X149686190Y-89638095D01*
X149257619Y-89304761D02*
X149352857Y-89352380D01*
X149543333Y-89352380D01*
X149638571Y-89304761D01*
X149686190Y-89257142D01*
X149733809Y-89161904D01*
X149733809Y-88876190D01*
X149686190Y-88780952D01*
X149638571Y-88733333D01*
X149543333Y-88685714D01*
X149352857Y-88685714D01*
X149257619Y-88733333D01*
X160599047Y-112482380D02*
X161075238Y-112482380D01*
X161122857Y-112958571D01*
X161075238Y-112910952D01*
X160980000Y-112863333D01*
X160741904Y-112863333D01*
X160646666Y-112910952D01*
X160599047Y-112958571D01*
X160551428Y-113053809D01*
X160551428Y-113291904D01*
X160599047Y-113387142D01*
X160646666Y-113434761D01*
X160741904Y-113482380D01*
X160980000Y-113482380D01*
X161075238Y-113434761D01*
X161122857Y-113387142D01*
X160265714Y-112482380D02*
X159932380Y-113482380D01*
X159599047Y-112482380D01*
X158503809Y-113482380D02*
X158503809Y-112482380D01*
X158122857Y-112482380D01*
X158027619Y-112530000D01*
X157980000Y-112577619D01*
X157932380Y-112672857D01*
X157932380Y-112815714D01*
X157980000Y-112910952D01*
X158027619Y-112958571D01*
X158122857Y-113006190D01*
X158503809Y-113006190D01*
X157313333Y-112482380D02*
X157122857Y-112482380D01*
X157027619Y-112530000D01*
X156932380Y-112625238D01*
X156884761Y-112815714D01*
X156884761Y-113149047D01*
X156932380Y-113339523D01*
X157027619Y-113434761D01*
X157122857Y-113482380D01*
X157313333Y-113482380D01*
X157408571Y-113434761D01*
X157503809Y-113339523D01*
X157551428Y-113149047D01*
X157551428Y-112815714D01*
X157503809Y-112625238D01*
X157408571Y-112530000D01*
X157313333Y-112482380D01*
X156551428Y-112482380D02*
X156313333Y-113482380D01*
X156122857Y-112768095D01*
X155932380Y-113482380D01*
X155694285Y-112482380D01*
X155313333Y-112958571D02*
X154980000Y-112958571D01*
X154837142Y-113482380D02*
X155313333Y-113482380D01*
X155313333Y-112482380D01*
X154837142Y-112482380D01*
X153837142Y-113482380D02*
X154170476Y-113006190D01*
X154408571Y-113482380D02*
X154408571Y-112482380D01*
X154027619Y-112482380D01*
X153932380Y-112530000D01*
X153884761Y-112577619D01*
X153837142Y-112672857D01*
X153837142Y-112815714D01*
X153884761Y-112910952D01*
X153932380Y-112958571D01*
X154027619Y-113006190D01*
X154408571Y-113006190D01*
X149597619Y-113482380D02*
X150169047Y-113482380D01*
X149883333Y-113482380D02*
X149883333Y-112482380D01*
X149978571Y-112625238D01*
X150073809Y-112720476D01*
X150169047Y-112768095D01*
X149216666Y-112577619D02*
X149169047Y-112530000D01*
X149073809Y-112482380D01*
X148835714Y-112482380D01*
X148740476Y-112530000D01*
X148692857Y-112577619D01*
X148645238Y-112672857D01*
X148645238Y-112768095D01*
X148692857Y-112910952D01*
X149264285Y-113482380D01*
X148645238Y-113482380D01*
X148359523Y-112482380D02*
X148026190Y-113482380D01*
X147692857Y-112482380D01*
X146597619Y-113482380D02*
X146597619Y-112482380D01*
X146216666Y-112482380D01*
X146121428Y-112530000D01*
X146073809Y-112577619D01*
X146026190Y-112672857D01*
X146026190Y-112815714D01*
X146073809Y-112910952D01*
X146121428Y-112958571D01*
X146216666Y-113006190D01*
X146597619Y-113006190D01*
X145407142Y-112482380D02*
X145216666Y-112482380D01*
X145121428Y-112530000D01*
X145026190Y-112625238D01*
X144978571Y-112815714D01*
X144978571Y-113149047D01*
X145026190Y-113339523D01*
X145121428Y-113434761D01*
X145216666Y-113482380D01*
X145407142Y-113482380D01*
X145502380Y-113434761D01*
X145597619Y-113339523D01*
X145645238Y-113149047D01*
X145645238Y-112815714D01*
X145597619Y-112625238D01*
X145502380Y-112530000D01*
X145407142Y-112482380D01*
X144645238Y-112482380D02*
X144407142Y-113482380D01*
X144216666Y-112768095D01*
X144026190Y-113482380D01*
X143788095Y-112482380D01*
X143407142Y-112958571D02*
X143073809Y-112958571D01*
X142930952Y-113482380D02*
X143407142Y-113482380D01*
X143407142Y-112482380D01*
X142930952Y-112482380D01*
X141930952Y-113482380D02*
X142264285Y-113006190D01*
X142502380Y-113482380D02*
X142502380Y-112482380D01*
X142121428Y-112482380D01*
X142026190Y-112530000D01*
X141978571Y-112577619D01*
X141930952Y-112672857D01*
X141930952Y-112815714D01*
X141978571Y-112910952D01*
X142026190Y-112958571D01*
X142121428Y-113006190D01*
X142502380Y-113006190D01*
D11*
X140970000Y-96520000D02*
X146050000Y-96520000D01*
X146050000Y-91440000D02*
X140970000Y-91440000D01*
D10*
X144295714Y-90527142D02*
X144343333Y-90574761D01*
X144486190Y-90622380D01*
X144581428Y-90622380D01*
X144724285Y-90574761D01*
X144819523Y-90479523D01*
X144867142Y-90384285D01*
X144914761Y-90193809D01*
X144914761Y-90050952D01*
X144867142Y-89860476D01*
X144819523Y-89765238D01*
X144724285Y-89670000D01*
X144581428Y-89622380D01*
X144486190Y-89622380D01*
X144343333Y-89670000D01*
X144295714Y-89717619D01*
X143676666Y-89622380D02*
X143486190Y-89622380D01*
X143390952Y-89670000D01*
X143295714Y-89765238D01*
X143248095Y-89955714D01*
X143248095Y-90289047D01*
X143295714Y-90479523D01*
X143390952Y-90574761D01*
X143486190Y-90622380D01*
X143676666Y-90622380D01*
X143771904Y-90574761D01*
X143867142Y-90479523D01*
X143914761Y-90289047D01*
X143914761Y-89955714D01*
X143867142Y-89765238D01*
X143771904Y-89670000D01*
X143676666Y-89622380D01*
X142819523Y-90622380D02*
X142819523Y-89622380D01*
X142486190Y-90336666D01*
X142152857Y-89622380D01*
X142152857Y-90622380D01*
X144224285Y-94702380D02*
X144224285Y-95511904D01*
X144176666Y-95607142D01*
X144129047Y-95654761D01*
X144033809Y-95702380D01*
X143843333Y-95702380D01*
X143748095Y-95654761D01*
X143700476Y-95607142D01*
X143652857Y-95511904D01*
X143652857Y-94702380D01*
X143319523Y-94702380D02*
X142986190Y-95702380D01*
X142652857Y-94702380D01*
X143938571Y-92638571D02*
X143795714Y-92686190D01*
X143748095Y-92733809D01*
X143700476Y-92829047D01*
X143700476Y-92971904D01*
X143748095Y-93067142D01*
X143795714Y-93114761D01*
X143890952Y-93162380D01*
X144271904Y-93162380D01*
X144271904Y-92162380D01*
X143938571Y-92162380D01*
X143843333Y-92210000D01*
X143795714Y-92257619D01*
X143748095Y-92352857D01*
X143748095Y-92448095D01*
X143795714Y-92543333D01*
X143843333Y-92590952D01*
X143938571Y-92638571D01*
X144271904Y-92638571D01*
X142700476Y-93162380D02*
X143033809Y-92686190D01*
X143271904Y-93162380D02*
X143271904Y-92162380D01*
X142890952Y-92162380D01*
X142795714Y-92210000D01*
X142748095Y-92257619D01*
X142700476Y-92352857D01*
X142700476Y-92495714D01*
X142748095Y-92590952D01*
X142795714Y-92638571D01*
X142890952Y-92686190D01*
X143271904Y-92686190D01*
X141470000Y-94980000D02*
X141517619Y-95075238D01*
X141517619Y-95218095D01*
X141470000Y-95360952D01*
X141374761Y-95456190D01*
X141279523Y-95503809D01*
X141089047Y-95551428D01*
X140946190Y-95551428D01*
X140755714Y-95503809D01*
X140660476Y-95456190D01*
X140565238Y-95360952D01*
X140517619Y-95218095D01*
X140517619Y-95122857D01*
X140565238Y-94980000D01*
X140612857Y-94932380D01*
X140946190Y-94932380D01*
X140946190Y-95122857D01*
X140803333Y-94551428D02*
X140803333Y-94075238D01*
X140517619Y-94646666D02*
X141517619Y-94313333D01*
X140517619Y-93980000D01*
X141517619Y-93789523D02*
X141517619Y-93218095D01*
X140517619Y-93503809D02*
X141517619Y-93503809D01*
X141041428Y-92884761D02*
X141041428Y-92551428D01*
X140517619Y-92408571D02*
X140517619Y-92884761D01*
X141517619Y-92884761D01*
X141517619Y-92408571D01*
X149931428Y-78517619D02*
X149883809Y-78374761D01*
X149836190Y-78327142D01*
X149740952Y-78279523D01*
X149598095Y-78279523D01*
X149502857Y-78327142D01*
X149455238Y-78374761D01*
X149407619Y-78470000D01*
X149407619Y-78850952D01*
X150407619Y-78850952D01*
X150407619Y-78517619D01*
X150360000Y-78422380D01*
X150312380Y-78374761D01*
X150217142Y-78327142D01*
X150121904Y-78327142D01*
X150026666Y-78374761D01*
X149979047Y-78422380D01*
X149931428Y-78517619D01*
X149931428Y-78850952D01*
X149407619Y-77279523D02*
X149883809Y-77612857D01*
X149407619Y-77850952D02*
X150407619Y-77850952D01*
X150407619Y-77470000D01*
X150360000Y-77374761D01*
X150312380Y-77327142D01*
X150217142Y-77279523D01*
X150074285Y-77279523D01*
X149979047Y-77327142D01*
X149931428Y-77374761D01*
X149883809Y-77470000D01*
X149883809Y-77850952D01*
X149788571Y-76850952D02*
X149788571Y-76089047D01*
X160567619Y-78803333D02*
X159758095Y-78803333D01*
X159662857Y-78755714D01*
X159615238Y-78708095D01*
X159567619Y-78612857D01*
X159567619Y-78422380D01*
X159615238Y-78327142D01*
X159662857Y-78279523D01*
X159758095Y-78231904D01*
X160567619Y-78231904D01*
X160567619Y-77898571D02*
X159567619Y-77565238D01*
X160567619Y-77231904D01*
X159948571Y-76898571D02*
X159948571Y-76136666D01*
X144851428Y-78517619D02*
X144803809Y-78374761D01*
X144756190Y-78327142D01*
X144660952Y-78279523D01*
X144518095Y-78279523D01*
X144422857Y-78327142D01*
X144375238Y-78374761D01*
X144327619Y-78470000D01*
X144327619Y-78850952D01*
X145327619Y-78850952D01*
X145327619Y-78517619D01*
X145280000Y-78422380D01*
X145232380Y-78374761D01*
X145137142Y-78327142D01*
X145041904Y-78327142D01*
X144946666Y-78374761D01*
X144899047Y-78422380D01*
X144851428Y-78517619D01*
X144851428Y-78850952D01*
X144327619Y-77279523D02*
X144803809Y-77612857D01*
X144327619Y-77850952D02*
X145327619Y-77850952D01*
X145327619Y-77470000D01*
X145280000Y-77374761D01*
X145232380Y-77327142D01*
X145137142Y-77279523D01*
X144994285Y-77279523D01*
X144899047Y-77327142D01*
X144851428Y-77374761D01*
X144803809Y-77470000D01*
X144803809Y-77850952D01*
X144708571Y-76850952D02*
X144708571Y-76089047D01*
X144327619Y-76470000D02*
X145089523Y-76470000D01*
X155487619Y-78803333D02*
X154678095Y-78803333D01*
X154582857Y-78755714D01*
X154535238Y-78708095D01*
X154487619Y-78612857D01*
X154487619Y-78422380D01*
X154535238Y-78327142D01*
X154582857Y-78279523D01*
X154678095Y-78231904D01*
X155487619Y-78231904D01*
X155487619Y-77898571D02*
X154487619Y-77565238D01*
X155487619Y-77231904D01*
X154868571Y-76898571D02*
X154868571Y-76136666D01*
X154487619Y-76517619D02*
X155249523Y-76517619D01*
D12*
%TO.C,G\u002A\u002A\u002A*%
G36*
X157518041Y-84674804D02*
G01*
X157520415Y-84686079D01*
X157527128Y-84705106D01*
X157538485Y-84732555D01*
X157554791Y-84769096D01*
X157576349Y-84815401D01*
X157603463Y-84872140D01*
X157636439Y-84939985D01*
X157675580Y-85019605D01*
X157705029Y-85079114D01*
X157740771Y-85150702D01*
X157775604Y-85219547D01*
X157808929Y-85284528D01*
X157840145Y-85344524D01*
X157868652Y-85398412D01*
X157893850Y-85445073D01*
X157915139Y-85483383D01*
X157931920Y-85512221D01*
X157943591Y-85530467D01*
X157949553Y-85536998D01*
X157949949Y-85536869D01*
X157949476Y-85528477D01*
X157944802Y-85507973D01*
X157936441Y-85476975D01*
X157924904Y-85437099D01*
X157910705Y-85389962D01*
X157894356Y-85337180D01*
X157876370Y-85280370D01*
X157857259Y-85221148D01*
X157837537Y-85161132D01*
X157817716Y-85101937D01*
X157798308Y-85045181D01*
X157779827Y-84992479D01*
X157762786Y-84945449D01*
X157760013Y-84937986D01*
X157749518Y-84909037D01*
X157741606Y-84885633D01*
X157737255Y-84870758D01*
X157736829Y-84867037D01*
X157744338Y-84868526D01*
X157763620Y-84874636D01*
X157792924Y-84884722D01*
X157830500Y-84898137D01*
X157874598Y-84914231D01*
X157923465Y-84932359D01*
X157975353Y-84951873D01*
X158028509Y-84972125D01*
X158081184Y-84992469D01*
X158131626Y-85012257D01*
X158158542Y-85022972D01*
X158192936Y-85036864D01*
X158238907Y-85055609D01*
X158294641Y-85078460D01*
X158358326Y-85104667D01*
X158428149Y-85133485D01*
X158502296Y-85164164D01*
X158578955Y-85195957D01*
X158656312Y-85228116D01*
X158698714Y-85245778D01*
X158831086Y-85300858D01*
X158950569Y-85350371D01*
X159057119Y-85394296D01*
X159150690Y-85432617D01*
X159231235Y-85465314D01*
X159298709Y-85492368D01*
X159353065Y-85513763D01*
X159394258Y-85529478D01*
X159422242Y-85539496D01*
X159436972Y-85543798D01*
X159439428Y-85543613D01*
X159433512Y-85537404D01*
X159416792Y-85524612D01*
X159390810Y-85506286D01*
X159357106Y-85483474D01*
X159317224Y-85457226D01*
X159272704Y-85428590D01*
X159239857Y-85407843D01*
X159050287Y-85293385D01*
X158856233Y-85184681D01*
X158659890Y-85082789D01*
X158463454Y-84988767D01*
X158269118Y-84903675D01*
X158079079Y-84828570D01*
X157928096Y-84775214D01*
X157895657Y-84764945D01*
X157855777Y-84753167D01*
X157810622Y-84740434D01*
X157762356Y-84727302D01*
X157713145Y-84714323D01*
X157665155Y-84702054D01*
X157620550Y-84691049D01*
X157581497Y-84681863D01*
X157550160Y-84675049D01*
X157528704Y-84671164D01*
X157519703Y-84670610D01*
X157518041Y-84674804D01*
G37*
X157518041Y-84674804D02*
X157520415Y-84686079D01*
X157527128Y-84705106D01*
X157538485Y-84732555D01*
X157554791Y-84769096D01*
X157576349Y-84815401D01*
X157603463Y-84872140D01*
X157636439Y-84939985D01*
X157675580Y-85019605D01*
X157705029Y-85079114D01*
X157740771Y-85150702D01*
X157775604Y-85219547D01*
X157808929Y-85284528D01*
X157840145Y-85344524D01*
X157868652Y-85398412D01*
X157893850Y-85445073D01*
X157915139Y-85483383D01*
X157931920Y-85512221D01*
X157943591Y-85530467D01*
X157949553Y-85536998D01*
X157949949Y-85536869D01*
X157949476Y-85528477D01*
X157944802Y-85507973D01*
X157936441Y-85476975D01*
X157924904Y-85437099D01*
X157910705Y-85389962D01*
X157894356Y-85337180D01*
X157876370Y-85280370D01*
X157857259Y-85221148D01*
X157837537Y-85161132D01*
X157817716Y-85101937D01*
X157798308Y-85045181D01*
X157779827Y-84992479D01*
X157762786Y-84945449D01*
X157760013Y-84937986D01*
X157749518Y-84909037D01*
X157741606Y-84885633D01*
X157737255Y-84870758D01*
X157736829Y-84867037D01*
X157744338Y-84868526D01*
X157763620Y-84874636D01*
X157792924Y-84884722D01*
X157830500Y-84898137D01*
X157874598Y-84914231D01*
X157923465Y-84932359D01*
X157975353Y-84951873D01*
X158028509Y-84972125D01*
X158081184Y-84992469D01*
X158131626Y-85012257D01*
X158158542Y-85022972D01*
X158192936Y-85036864D01*
X158238907Y-85055609D01*
X158294641Y-85078460D01*
X158358326Y-85104667D01*
X158428149Y-85133485D01*
X158502296Y-85164164D01*
X158578955Y-85195957D01*
X158656312Y-85228116D01*
X158698714Y-85245778D01*
X158831086Y-85300858D01*
X158950569Y-85350371D01*
X159057119Y-85394296D01*
X159150690Y-85432617D01*
X159231235Y-85465314D01*
X159298709Y-85492368D01*
X159353065Y-85513763D01*
X159394258Y-85529478D01*
X159422242Y-85539496D01*
X159436972Y-85543798D01*
X159439428Y-85543613D01*
X159433512Y-85537404D01*
X159416792Y-85524612D01*
X159390810Y-85506286D01*
X159357106Y-85483474D01*
X159317224Y-85457226D01*
X159272704Y-85428590D01*
X159239857Y-85407843D01*
X159050287Y-85293385D01*
X158856233Y-85184681D01*
X158659890Y-85082789D01*
X158463454Y-84988767D01*
X158269118Y-84903675D01*
X158079079Y-84828570D01*
X157928096Y-84775214D01*
X157895657Y-84764945D01*
X157855777Y-84753167D01*
X157810622Y-84740434D01*
X157762356Y-84727302D01*
X157713145Y-84714323D01*
X157665155Y-84702054D01*
X157620550Y-84691049D01*
X157581497Y-84681863D01*
X157550160Y-84675049D01*
X157528704Y-84671164D01*
X157519703Y-84670610D01*
X157518041Y-84674804D01*
G36*
X153206113Y-83757518D02*
G01*
X153202191Y-83777357D01*
X153197319Y-83805926D01*
X153192004Y-83840399D01*
X153191119Y-83846464D01*
X153160233Y-84037941D01*
X153123502Y-84227220D01*
X153081577Y-84411495D01*
X153035110Y-84587960D01*
X152984753Y-84753808D01*
X152970429Y-84796829D01*
X152922971Y-84927908D01*
X152874266Y-85045176D01*
X152823950Y-85149308D01*
X152771662Y-85240981D01*
X152717038Y-85320871D01*
X152659717Y-85389652D01*
X152643268Y-85406877D01*
X152621286Y-85429897D01*
X152607188Y-85446155D01*
X152601841Y-85454555D01*
X152606024Y-85454048D01*
X152625901Y-85439732D01*
X152652342Y-85416526D01*
X152682925Y-85386938D01*
X152715224Y-85353473D01*
X152746815Y-85318637D01*
X152775273Y-85284937D01*
X152796730Y-85256914D01*
X152863512Y-85155021D01*
X152927186Y-85040551D01*
X152987895Y-84913175D01*
X153045784Y-84772561D01*
X153100995Y-84618379D01*
X153153671Y-84450297D01*
X153168022Y-84400571D01*
X153183811Y-84342713D01*
X153200893Y-84276384D01*
X153218334Y-84205516D01*
X153235201Y-84134041D01*
X153250559Y-84065891D01*
X153263475Y-84004998D01*
X153270568Y-83968771D01*
X153275508Y-83942612D01*
X153279831Y-83920293D01*
X153281985Y-83909623D01*
X153283648Y-83905749D01*
X153287514Y-83903933D01*
X153294887Y-83904736D01*
X153307073Y-83908713D01*
X153325377Y-83916424D01*
X153351104Y-83928426D01*
X153385560Y-83945277D01*
X153430049Y-83967535D01*
X153485878Y-83995759D01*
X153498669Y-84002244D01*
X153549988Y-84028135D01*
X153613032Y-84059713D01*
X153686472Y-84096323D01*
X153768979Y-84137309D01*
X153859223Y-84182018D01*
X153955873Y-84229795D01*
X154057601Y-84279984D01*
X154163076Y-84331932D01*
X154270968Y-84384983D01*
X154379948Y-84438483D01*
X154488687Y-84491777D01*
X154595853Y-84544210D01*
X154700118Y-84595128D01*
X154800151Y-84643875D01*
X154894623Y-84689798D01*
X154927696Y-84705842D01*
X154999422Y-84740388D01*
X155061788Y-84769954D01*
X155114195Y-84794269D01*
X155156043Y-84813065D01*
X155186730Y-84826070D01*
X155205658Y-84833015D01*
X155212202Y-84833745D01*
X155214565Y-84824474D01*
X155219629Y-84803131D01*
X155226909Y-84771806D01*
X155235922Y-84732588D01*
X155246184Y-84687566D01*
X155252839Y-84658200D01*
X155263674Y-84610888D01*
X155273681Y-84568331D01*
X155282360Y-84532567D01*
X155289211Y-84505634D01*
X155293731Y-84489572D01*
X155295144Y-84485966D01*
X155302432Y-84487930D01*
X155320799Y-84496088D01*
X155348616Y-84509621D01*
X155384253Y-84527715D01*
X155426079Y-84549553D01*
X155472465Y-84574318D01*
X155484525Y-84580838D01*
X155574057Y-84629251D01*
X155668134Y-84679892D01*
X155766005Y-84732367D01*
X155866920Y-84786286D01*
X155970127Y-84841255D01*
X156074875Y-84896885D01*
X156180413Y-84952781D01*
X156285991Y-85008553D01*
X156390857Y-85063808D01*
X156494261Y-85118154D01*
X156595451Y-85171200D01*
X156693677Y-85222553D01*
X156788188Y-85271821D01*
X156878232Y-85318613D01*
X156963059Y-85362536D01*
X157041918Y-85403199D01*
X157114057Y-85440209D01*
X157178726Y-85473174D01*
X157235175Y-85501703D01*
X157282651Y-85525403D01*
X157320404Y-85543883D01*
X157347683Y-85556750D01*
X157363738Y-85563613D01*
X157367816Y-85564079D01*
X157367514Y-85563736D01*
X157357610Y-85556367D01*
X157335936Y-85542221D01*
X157303296Y-85521771D01*
X157260495Y-85495486D01*
X157208339Y-85463837D01*
X157147632Y-85427297D01*
X157079179Y-85386335D01*
X157003785Y-85341422D01*
X156922255Y-85293030D01*
X156835394Y-85241630D01*
X156744006Y-85187692D01*
X156648898Y-85131688D01*
X156550873Y-85074088D01*
X156450736Y-85015364D01*
X156349293Y-84955987D01*
X156247348Y-84896426D01*
X156145706Y-84837155D01*
X156045173Y-84778642D01*
X155946553Y-84721361D01*
X155850651Y-84665780D01*
X155758272Y-84612372D01*
X155670220Y-84561608D01*
X155587302Y-84513958D01*
X155510321Y-84469893D01*
X155440083Y-84429885D01*
X155377392Y-84394404D01*
X155323054Y-84363921D01*
X155277873Y-84338908D01*
X155242655Y-84319835D01*
X155232697Y-84314580D01*
X155227659Y-84312405D01*
X155223316Y-84312762D01*
X155219112Y-84317232D01*
X155214492Y-84327400D01*
X155208897Y-84344847D01*
X155201772Y-84371157D01*
X155192560Y-84407913D01*
X155180705Y-84456697D01*
X155176282Y-84475021D01*
X155164615Y-84523008D01*
X155153808Y-84566733D01*
X155144403Y-84604067D01*
X155136938Y-84632885D01*
X155131954Y-84651056D01*
X155130328Y-84656090D01*
X155127674Y-84658232D01*
X155121656Y-84658165D01*
X155111242Y-84655431D01*
X155095404Y-84649573D01*
X155073111Y-84640133D01*
X155043335Y-84626651D01*
X155005044Y-84608671D01*
X154957209Y-84585734D01*
X154898801Y-84557381D01*
X154828790Y-84523155D01*
X154802114Y-84510076D01*
X154693806Y-84457030D01*
X154583872Y-84403349D01*
X154473086Y-84349401D01*
X154362221Y-84295556D01*
X154252051Y-84242183D01*
X154143347Y-84189652D01*
X154036884Y-84138330D01*
X153933435Y-84088589D01*
X153833773Y-84040795D01*
X153738670Y-83995320D01*
X153648901Y-83952532D01*
X153565239Y-83912799D01*
X153488456Y-83876493D01*
X153419326Y-83843980D01*
X153358622Y-83815631D01*
X153307117Y-83791816D01*
X153265585Y-83772902D01*
X153234798Y-83759259D01*
X153215530Y-83751256D01*
X153208576Y-83749233D01*
X153206113Y-83757518D01*
G37*
X153206113Y-83757518D02*
X153202191Y-83777357D01*
X153197319Y-83805926D01*
X153192004Y-83840399D01*
X153191119Y-83846464D01*
X153160233Y-84037941D01*
X153123502Y-84227220D01*
X153081577Y-84411495D01*
X153035110Y-84587960D01*
X152984753Y-84753808D01*
X152970429Y-84796829D01*
X152922971Y-84927908D01*
X152874266Y-85045176D01*
X152823950Y-85149308D01*
X152771662Y-85240981D01*
X152717038Y-85320871D01*
X152659717Y-85389652D01*
X152643268Y-85406877D01*
X152621286Y-85429897D01*
X152607188Y-85446155D01*
X152601841Y-85454555D01*
X152606024Y-85454048D01*
X152625901Y-85439732D01*
X152652342Y-85416526D01*
X152682925Y-85386938D01*
X152715224Y-85353473D01*
X152746815Y-85318637D01*
X152775273Y-85284937D01*
X152796730Y-85256914D01*
X152863512Y-85155021D01*
X152927186Y-85040551D01*
X152987895Y-84913175D01*
X153045784Y-84772561D01*
X153100995Y-84618379D01*
X153153671Y-84450297D01*
X153168022Y-84400571D01*
X153183811Y-84342713D01*
X153200893Y-84276384D01*
X153218334Y-84205516D01*
X153235201Y-84134041D01*
X153250559Y-84065891D01*
X153263475Y-84004998D01*
X153270568Y-83968771D01*
X153275508Y-83942612D01*
X153279831Y-83920293D01*
X153281985Y-83909623D01*
X153283648Y-83905749D01*
X153287514Y-83903933D01*
X153294887Y-83904736D01*
X153307073Y-83908713D01*
X153325377Y-83916424D01*
X153351104Y-83928426D01*
X153385560Y-83945277D01*
X153430049Y-83967535D01*
X153485878Y-83995759D01*
X153498669Y-84002244D01*
X153549988Y-84028135D01*
X153613032Y-84059713D01*
X153686472Y-84096323D01*
X153768979Y-84137309D01*
X153859223Y-84182018D01*
X153955873Y-84229795D01*
X154057601Y-84279984D01*
X154163076Y-84331932D01*
X154270968Y-84384983D01*
X154379948Y-84438483D01*
X154488687Y-84491777D01*
X154595853Y-84544210D01*
X154700118Y-84595128D01*
X154800151Y-84643875D01*
X154894623Y-84689798D01*
X154927696Y-84705842D01*
X154999422Y-84740388D01*
X155061788Y-84769954D01*
X155114195Y-84794269D01*
X155156043Y-84813065D01*
X155186730Y-84826070D01*
X155205658Y-84833015D01*
X155212202Y-84833745D01*
X155214565Y-84824474D01*
X155219629Y-84803131D01*
X155226909Y-84771806D01*
X155235922Y-84732588D01*
X155246184Y-84687566D01*
X155252839Y-84658200D01*
X155263674Y-84610888D01*
X155273681Y-84568331D01*
X155282360Y-84532567D01*
X155289211Y-84505634D01*
X155293731Y-84489572D01*
X155295144Y-84485966D01*
X155302432Y-84487930D01*
X155320799Y-84496088D01*
X155348616Y-84509621D01*
X155384253Y-84527715D01*
X155426079Y-84549553D01*
X155472465Y-84574318D01*
X155484525Y-84580838D01*
X155574057Y-84629251D01*
X155668134Y-84679892D01*
X155766005Y-84732367D01*
X155866920Y-84786286D01*
X155970127Y-84841255D01*
X156074875Y-84896885D01*
X156180413Y-84952781D01*
X156285991Y-85008553D01*
X156390857Y-85063808D01*
X156494261Y-85118154D01*
X156595451Y-85171200D01*
X156693677Y-85222553D01*
X156788188Y-85271821D01*
X156878232Y-85318613D01*
X156963059Y-85362536D01*
X157041918Y-85403199D01*
X157114057Y-85440209D01*
X157178726Y-85473174D01*
X157235175Y-85501703D01*
X157282651Y-85525403D01*
X157320404Y-85543883D01*
X157347683Y-85556750D01*
X157363738Y-85563613D01*
X157367816Y-85564079D01*
X157367514Y-85563736D01*
X157357610Y-85556367D01*
X157335936Y-85542221D01*
X157303296Y-85521771D01*
X157260495Y-85495486D01*
X157208339Y-85463837D01*
X157147632Y-85427297D01*
X157079179Y-85386335D01*
X157003785Y-85341422D01*
X156922255Y-85293030D01*
X156835394Y-85241630D01*
X156744006Y-85187692D01*
X156648898Y-85131688D01*
X156550873Y-85074088D01*
X156450736Y-85015364D01*
X156349293Y-84955987D01*
X156247348Y-84896426D01*
X156145706Y-84837155D01*
X156045173Y-84778642D01*
X155946553Y-84721361D01*
X155850651Y-84665780D01*
X155758272Y-84612372D01*
X155670220Y-84561608D01*
X155587302Y-84513958D01*
X155510321Y-84469893D01*
X155440083Y-84429885D01*
X155377392Y-84394404D01*
X155323054Y-84363921D01*
X155277873Y-84338908D01*
X155242655Y-84319835D01*
X155232697Y-84314580D01*
X155227659Y-84312405D01*
X155223316Y-84312762D01*
X155219112Y-84317232D01*
X155214492Y-84327400D01*
X155208897Y-84344847D01*
X155201772Y-84371157D01*
X155192560Y-84407913D01*
X155180705Y-84456697D01*
X155176282Y-84475021D01*
X155164615Y-84523008D01*
X155153808Y-84566733D01*
X155144403Y-84604067D01*
X155136938Y-84632885D01*
X155131954Y-84651056D01*
X155130328Y-84656090D01*
X155127674Y-84658232D01*
X155121656Y-84658165D01*
X155111242Y-84655431D01*
X155095404Y-84649573D01*
X155073111Y-84640133D01*
X155043335Y-84626651D01*
X155005044Y-84608671D01*
X154957209Y-84585734D01*
X154898801Y-84557381D01*
X154828790Y-84523155D01*
X154802114Y-84510076D01*
X154693806Y-84457030D01*
X154583872Y-84403349D01*
X154473086Y-84349401D01*
X154362221Y-84295556D01*
X154252051Y-84242183D01*
X154143347Y-84189652D01*
X154036884Y-84138330D01*
X153933435Y-84088589D01*
X153833773Y-84040795D01*
X153738670Y-83995320D01*
X153648901Y-83952532D01*
X153565239Y-83912799D01*
X153488456Y-83876493D01*
X153419326Y-83843980D01*
X153358622Y-83815631D01*
X153307117Y-83791816D01*
X153265585Y-83772902D01*
X153234798Y-83759259D01*
X153215530Y-83751256D01*
X153208576Y-83749233D01*
X153206113Y-83757518D01*
G36*
X156284773Y-86164440D02*
G01*
X156218442Y-86164913D01*
X156151276Y-86165793D01*
X156085226Y-86167057D01*
X156022242Y-86168679D01*
X155964277Y-86170634D01*
X155913283Y-86172897D01*
X155871209Y-86175445D01*
X155840009Y-86178251D01*
X155823289Y-86180870D01*
X155752212Y-86204246D01*
X155688821Y-86238720D01*
X155634433Y-86283296D01*
X155590361Y-86336980D01*
X155569520Y-86372940D01*
X155543652Y-86439520D01*
X155531451Y-86506866D01*
X155532463Y-86573381D01*
X155546237Y-86637469D01*
X155572321Y-86697534D01*
X155610264Y-86751979D01*
X155659613Y-86799207D01*
X155697526Y-86825240D01*
X155736901Y-86848791D01*
X155670545Y-86881229D01*
X155604584Y-86920055D01*
X155551324Y-86965896D01*
X155510688Y-87018884D01*
X155482602Y-87079148D01*
X155466990Y-87146819D01*
X155463776Y-87222026D01*
X155464535Y-87236797D01*
X155476158Y-87312611D01*
X155500350Y-87382167D01*
X155536462Y-87444434D01*
X155583844Y-87498379D01*
X155641847Y-87542969D01*
X155665969Y-87556943D01*
X155721361Y-87580674D01*
X155788497Y-87599367D01*
X155865325Y-87612486D01*
X155889640Y-87615223D01*
X155913259Y-87616849D01*
X155948113Y-87618250D01*
X155992314Y-87619423D01*
X156043973Y-87620368D01*
X156101204Y-87621083D01*
X156162118Y-87621565D01*
X156224828Y-87621813D01*
X156287446Y-87621826D01*
X156348085Y-87621602D01*
X156404857Y-87621139D01*
X156455874Y-87620436D01*
X156499248Y-87619490D01*
X156533092Y-87618301D01*
X156555518Y-87616866D01*
X156563000Y-87615820D01*
X156603709Y-87599178D01*
X156636281Y-87571441D01*
X156653985Y-87544455D01*
X156670828Y-87510257D01*
X156671206Y-87398936D01*
X156376914Y-87398936D01*
X156168271Y-87396115D01*
X156106643Y-87395204D01*
X156057573Y-87394232D01*
X156019105Y-87393057D01*
X155989283Y-87391538D01*
X155966152Y-87389532D01*
X155947754Y-87386898D01*
X155932136Y-87383494D01*
X155917339Y-87379178D01*
X155912457Y-87377581D01*
X155860480Y-87355984D01*
X155821364Y-87329378D01*
X155793889Y-87296270D01*
X155776835Y-87255165D01*
X155768979Y-87204569D01*
X155768806Y-87201757D01*
X155770039Y-87146015D01*
X155781322Y-87099737D01*
X155803468Y-87061827D01*
X155837287Y-87031187D01*
X155883590Y-87006721D01*
X155923342Y-86992835D01*
X155939385Y-86989284D01*
X155962349Y-86986345D01*
X155993691Y-86983935D01*
X156034866Y-86981971D01*
X156087331Y-86980369D01*
X156152542Y-86979045D01*
X156168271Y-86978790D01*
X156376914Y-86975534D01*
X156376914Y-87398936D01*
X156671206Y-87398936D01*
X156672848Y-86915495D01*
X156673182Y-86796138D01*
X156673229Y-86760167D01*
X156376914Y-86760167D01*
X156175528Y-86757444D01*
X156113786Y-86756489D01*
X156064723Y-86755400D01*
X156026501Y-86754057D01*
X155997284Y-86752338D01*
X155975237Y-86750123D01*
X155958522Y-86747290D01*
X155945305Y-86743719D01*
X155940304Y-86741951D01*
X155899915Y-86719619D01*
X155865139Y-86686765D01*
X155842926Y-86652941D01*
X155834976Y-86631764D01*
X155830563Y-86605427D01*
X155829024Y-86569653D01*
X155829000Y-86563200D01*
X155831546Y-86518789D01*
X155840073Y-86485275D01*
X155855911Y-86459809D01*
X155880392Y-86439537D01*
X155889171Y-86434295D01*
X155911449Y-86423073D01*
X155935416Y-86414042D01*
X155963004Y-86406929D01*
X155996147Y-86401459D01*
X156036780Y-86397357D01*
X156086836Y-86394348D01*
X156148248Y-86392159D01*
X156193671Y-86391076D01*
X156376914Y-86387287D01*
X156376914Y-86760167D01*
X156673229Y-86760167D01*
X156673321Y-86690728D01*
X156673260Y-86598699D01*
X156672993Y-86519486D01*
X156672514Y-86452523D01*
X156671818Y-86397244D01*
X156670899Y-86353083D01*
X156669751Y-86319475D01*
X156668369Y-86295853D01*
X156666748Y-86281652D01*
X156666524Y-86280495D01*
X156650979Y-86238277D01*
X156624289Y-86204911D01*
X156587597Y-86181523D01*
X156555932Y-86171556D01*
X156535594Y-86169061D01*
X156502712Y-86167123D01*
X156459238Y-86165716D01*
X156407122Y-86164817D01*
X156348317Y-86164400D01*
X156284773Y-86164440D01*
G37*
X156284773Y-86164440D02*
X156218442Y-86164913D01*
X156151276Y-86165793D01*
X156085226Y-86167057D01*
X156022242Y-86168679D01*
X155964277Y-86170634D01*
X155913283Y-86172897D01*
X155871209Y-86175445D01*
X155840009Y-86178251D01*
X155823289Y-86180870D01*
X155752212Y-86204246D01*
X155688821Y-86238720D01*
X155634433Y-86283296D01*
X155590361Y-86336980D01*
X155569520Y-86372940D01*
X155543652Y-86439520D01*
X155531451Y-86506866D01*
X155532463Y-86573381D01*
X155546237Y-86637469D01*
X155572321Y-86697534D01*
X155610264Y-86751979D01*
X155659613Y-86799207D01*
X155697526Y-86825240D01*
X155736901Y-86848791D01*
X155670545Y-86881229D01*
X155604584Y-86920055D01*
X155551324Y-86965896D01*
X155510688Y-87018884D01*
X155482602Y-87079148D01*
X155466990Y-87146819D01*
X155463776Y-87222026D01*
X155464535Y-87236797D01*
X155476158Y-87312611D01*
X155500350Y-87382167D01*
X155536462Y-87444434D01*
X155583844Y-87498379D01*
X155641847Y-87542969D01*
X155665969Y-87556943D01*
X155721361Y-87580674D01*
X155788497Y-87599367D01*
X155865325Y-87612486D01*
X155889640Y-87615223D01*
X155913259Y-87616849D01*
X155948113Y-87618250D01*
X155992314Y-87619423D01*
X156043973Y-87620368D01*
X156101204Y-87621083D01*
X156162118Y-87621565D01*
X156224828Y-87621813D01*
X156287446Y-87621826D01*
X156348085Y-87621602D01*
X156404857Y-87621139D01*
X156455874Y-87620436D01*
X156499248Y-87619490D01*
X156533092Y-87618301D01*
X156555518Y-87616866D01*
X156563000Y-87615820D01*
X156603709Y-87599178D01*
X156636281Y-87571441D01*
X156653985Y-87544455D01*
X156670828Y-87510257D01*
X156671206Y-87398936D01*
X156376914Y-87398936D01*
X156168271Y-87396115D01*
X156106643Y-87395204D01*
X156057573Y-87394232D01*
X156019105Y-87393057D01*
X155989283Y-87391538D01*
X155966152Y-87389532D01*
X155947754Y-87386898D01*
X155932136Y-87383494D01*
X155917339Y-87379178D01*
X155912457Y-87377581D01*
X155860480Y-87355984D01*
X155821364Y-87329378D01*
X155793889Y-87296270D01*
X155776835Y-87255165D01*
X155768979Y-87204569D01*
X155768806Y-87201757D01*
X155770039Y-87146015D01*
X155781322Y-87099737D01*
X155803468Y-87061827D01*
X155837287Y-87031187D01*
X155883590Y-87006721D01*
X155923342Y-86992835D01*
X155939385Y-86989284D01*
X155962349Y-86986345D01*
X155993691Y-86983935D01*
X156034866Y-86981971D01*
X156087331Y-86980369D01*
X156152542Y-86979045D01*
X156168271Y-86978790D01*
X156376914Y-86975534D01*
X156376914Y-87398936D01*
X156671206Y-87398936D01*
X156672848Y-86915495D01*
X156673182Y-86796138D01*
X156673229Y-86760167D01*
X156376914Y-86760167D01*
X156175528Y-86757444D01*
X156113786Y-86756489D01*
X156064723Y-86755400D01*
X156026501Y-86754057D01*
X155997284Y-86752338D01*
X155975237Y-86750123D01*
X155958522Y-86747290D01*
X155945305Y-86743719D01*
X155940304Y-86741951D01*
X155899915Y-86719619D01*
X155865139Y-86686765D01*
X155842926Y-86652941D01*
X155834976Y-86631764D01*
X155830563Y-86605427D01*
X155829024Y-86569653D01*
X155829000Y-86563200D01*
X155831546Y-86518789D01*
X155840073Y-86485275D01*
X155855911Y-86459809D01*
X155880392Y-86439537D01*
X155889171Y-86434295D01*
X155911449Y-86423073D01*
X155935416Y-86414042D01*
X155963004Y-86406929D01*
X155996147Y-86401459D01*
X156036780Y-86397357D01*
X156086836Y-86394348D01*
X156148248Y-86392159D01*
X156193671Y-86391076D01*
X156376914Y-86387287D01*
X156376914Y-86760167D01*
X156673229Y-86760167D01*
X156673321Y-86690728D01*
X156673260Y-86598699D01*
X156672993Y-86519486D01*
X156672514Y-86452523D01*
X156671818Y-86397244D01*
X156670899Y-86353083D01*
X156669751Y-86319475D01*
X156668369Y-86295853D01*
X156666748Y-86281652D01*
X156666524Y-86280495D01*
X156650979Y-86238277D01*
X156624289Y-86204911D01*
X156587597Y-86181523D01*
X156555932Y-86171556D01*
X156535594Y-86169061D01*
X156502712Y-86167123D01*
X156459238Y-86165716D01*
X156407122Y-86164817D01*
X156348317Y-86164400D01*
X156284773Y-86164440D01*
G36*
X152204601Y-86148867D02*
G01*
X152165517Y-86167409D01*
X152134919Y-86197424D01*
X152113748Y-86238185D01*
X152109543Y-86251779D01*
X152108090Y-86264776D01*
X152106842Y-86292088D01*
X152105802Y-86333515D01*
X152104969Y-86388859D01*
X152104347Y-86457922D01*
X152103937Y-86540503D01*
X152103740Y-86636405D01*
X152103758Y-86745429D01*
X152103993Y-86867377D01*
X152104115Y-86909268D01*
X152104465Y-87019335D01*
X152104800Y-87115829D01*
X152105142Y-87199690D01*
X152105517Y-87271859D01*
X152105948Y-87333278D01*
X152106460Y-87384887D01*
X152107078Y-87427628D01*
X152107825Y-87462440D01*
X152108726Y-87490265D01*
X152109805Y-87512044D01*
X152111087Y-87528718D01*
X152112595Y-87541227D01*
X152114354Y-87550513D01*
X152116388Y-87557517D01*
X152118722Y-87563178D01*
X152121110Y-87567927D01*
X152136723Y-87590957D01*
X152157233Y-87613267D01*
X152163372Y-87618613D01*
X152180117Y-87630671D01*
X152196540Y-87637714D01*
X152217906Y-87641357D01*
X152242689Y-87642933D01*
X152277978Y-87642933D01*
X152302962Y-87638966D01*
X152316526Y-87633473D01*
X152345892Y-87614191D01*
X152367461Y-87590407D01*
X152380815Y-87568314D01*
X152383532Y-87563076D01*
X152385916Y-87557528D01*
X152387991Y-87550728D01*
X152389783Y-87541736D01*
X152391317Y-87529611D01*
X152392618Y-87513412D01*
X152393711Y-87492198D01*
X152394620Y-87465028D01*
X152395372Y-87430960D01*
X152395990Y-87389055D01*
X152396500Y-87338370D01*
X152396928Y-87277966D01*
X152397297Y-87206900D01*
X152397633Y-87124233D01*
X152397961Y-87029023D01*
X152398307Y-86920329D01*
X152398341Y-86909268D01*
X152398646Y-86783211D01*
X152398734Y-86670013D01*
X152398606Y-86569873D01*
X152398264Y-86482990D01*
X152397710Y-86409563D01*
X152396945Y-86349790D01*
X152395971Y-86303869D01*
X152394790Y-86272000D01*
X152393403Y-86254382D01*
X152392914Y-86251779D01*
X152374626Y-86208065D01*
X152346639Y-86174888D01*
X152309896Y-86152976D01*
X152265339Y-86143055D01*
X152251228Y-86142524D01*
X152204601Y-86148867D01*
G37*
X152204601Y-86148867D02*
X152165517Y-86167409D01*
X152134919Y-86197424D01*
X152113748Y-86238185D01*
X152109543Y-86251779D01*
X152108090Y-86264776D01*
X152106842Y-86292088D01*
X152105802Y-86333515D01*
X152104969Y-86388859D01*
X152104347Y-86457922D01*
X152103937Y-86540503D01*
X152103740Y-86636405D01*
X152103758Y-86745429D01*
X152103993Y-86867377D01*
X152104115Y-86909268D01*
X152104465Y-87019335D01*
X152104800Y-87115829D01*
X152105142Y-87199690D01*
X152105517Y-87271859D01*
X152105948Y-87333278D01*
X152106460Y-87384887D01*
X152107078Y-87427628D01*
X152107825Y-87462440D01*
X152108726Y-87490265D01*
X152109805Y-87512044D01*
X152111087Y-87528718D01*
X152112595Y-87541227D01*
X152114354Y-87550513D01*
X152116388Y-87557517D01*
X152118722Y-87563178D01*
X152121110Y-87567927D01*
X152136723Y-87590957D01*
X152157233Y-87613267D01*
X152163372Y-87618613D01*
X152180117Y-87630671D01*
X152196540Y-87637714D01*
X152217906Y-87641357D01*
X152242689Y-87642933D01*
X152277978Y-87642933D01*
X152302962Y-87638966D01*
X152316526Y-87633473D01*
X152345892Y-87614191D01*
X152367461Y-87590407D01*
X152380815Y-87568314D01*
X152383532Y-87563076D01*
X152385916Y-87557528D01*
X152387991Y-87550728D01*
X152389783Y-87541736D01*
X152391317Y-87529611D01*
X152392618Y-87513412D01*
X152393711Y-87492198D01*
X152394620Y-87465028D01*
X152395372Y-87430960D01*
X152395990Y-87389055D01*
X152396500Y-87338370D01*
X152396928Y-87277966D01*
X152397297Y-87206900D01*
X152397633Y-87124233D01*
X152397961Y-87029023D01*
X152398307Y-86920329D01*
X152398341Y-86909268D01*
X152398646Y-86783211D01*
X152398734Y-86670013D01*
X152398606Y-86569873D01*
X152398264Y-86482990D01*
X152397710Y-86409563D01*
X152396945Y-86349790D01*
X152395971Y-86303869D01*
X152394790Y-86272000D01*
X152393403Y-86254382D01*
X152392914Y-86251779D01*
X152374626Y-86208065D01*
X152346639Y-86174888D01*
X152309896Y-86152976D01*
X152265339Y-86143055D01*
X152251228Y-86142524D01*
X152204601Y-86148867D01*
G36*
X153119776Y-86164252D02*
G01*
X153044707Y-86164441D01*
X152972732Y-86164780D01*
X152905317Y-86165269D01*
X152843930Y-86165910D01*
X152790039Y-86166703D01*
X152745110Y-86167651D01*
X152710610Y-86168753D01*
X152688008Y-86170011D01*
X152679961Y-86171005D01*
X152640217Y-86186768D01*
X152610026Y-86212134D01*
X152590552Y-86244933D01*
X152582959Y-86282991D01*
X152588410Y-86324135D01*
X152592101Y-86335052D01*
X152610063Y-86366539D01*
X152634243Y-86387608D01*
X152663785Y-86407171D01*
X152858211Y-86409417D01*
X153052637Y-86411662D01*
X153054704Y-86975474D01*
X153055099Y-87079483D01*
X153055488Y-87169971D01*
X153055895Y-87247930D01*
X153056349Y-87314353D01*
X153056875Y-87370232D01*
X153057500Y-87416560D01*
X153058249Y-87454329D01*
X153059150Y-87484533D01*
X153060228Y-87508164D01*
X153061511Y-87526214D01*
X153063023Y-87539676D01*
X153064793Y-87549543D01*
X153066846Y-87556807D01*
X153069207Y-87562462D01*
X153070346Y-87564686D01*
X153088594Y-87594196D01*
X153108354Y-87614558D01*
X153134459Y-87630753D01*
X153134496Y-87630772D01*
X153163649Y-87640260D01*
X153199096Y-87644213D01*
X153234614Y-87642503D01*
X153263978Y-87635002D01*
X153267228Y-87633490D01*
X153297176Y-87611838D01*
X153323022Y-87581238D01*
X153340310Y-87547253D01*
X153342642Y-87539401D01*
X153344374Y-87526144D01*
X153345887Y-87500811D01*
X153347185Y-87463098D01*
X153348271Y-87412700D01*
X153349151Y-87349313D01*
X153349828Y-87272633D01*
X153350306Y-87182355D01*
X153350591Y-87078174D01*
X153350685Y-86959786D01*
X153350685Y-86410800D01*
X153537557Y-86410640D01*
X153595609Y-86410496D01*
X153641074Y-86410094D01*
X153675878Y-86409312D01*
X153701949Y-86408029D01*
X153721213Y-86406123D01*
X153735597Y-86403472D01*
X153747027Y-86399956D01*
X153754175Y-86396972D01*
X153786233Y-86375240D01*
X153808341Y-86345552D01*
X153820069Y-86310904D01*
X153820988Y-86274296D01*
X153810668Y-86238726D01*
X153788679Y-86207192D01*
X153782241Y-86201101D01*
X153759926Y-86185368D01*
X153735526Y-86173519D01*
X153730069Y-86171750D01*
X153717811Y-86170362D01*
X153692507Y-86169112D01*
X153655623Y-86168002D01*
X153608627Y-86167031D01*
X153552987Y-86166202D01*
X153490170Y-86165515D01*
X153421642Y-86164972D01*
X153348872Y-86164573D01*
X153273326Y-86164319D01*
X153196472Y-86164212D01*
X153119776Y-86164252D01*
G37*
X153119776Y-86164252D02*
X153044707Y-86164441D01*
X152972732Y-86164780D01*
X152905317Y-86165269D01*
X152843930Y-86165910D01*
X152790039Y-86166703D01*
X152745110Y-86167651D01*
X152710610Y-86168753D01*
X152688008Y-86170011D01*
X152679961Y-86171005D01*
X152640217Y-86186768D01*
X152610026Y-86212134D01*
X152590552Y-86244933D01*
X152582959Y-86282991D01*
X152588410Y-86324135D01*
X152592101Y-86335052D01*
X152610063Y-86366539D01*
X152634243Y-86387608D01*
X152663785Y-86407171D01*
X152858211Y-86409417D01*
X153052637Y-86411662D01*
X153054704Y-86975474D01*
X153055099Y-87079483D01*
X153055488Y-87169971D01*
X153055895Y-87247930D01*
X153056349Y-87314353D01*
X153056875Y-87370232D01*
X153057500Y-87416560D01*
X153058249Y-87454329D01*
X153059150Y-87484533D01*
X153060228Y-87508164D01*
X153061511Y-87526214D01*
X153063023Y-87539676D01*
X153064793Y-87549543D01*
X153066846Y-87556807D01*
X153069207Y-87562462D01*
X153070346Y-87564686D01*
X153088594Y-87594196D01*
X153108354Y-87614558D01*
X153134459Y-87630753D01*
X153134496Y-87630772D01*
X153163649Y-87640260D01*
X153199096Y-87644213D01*
X153234614Y-87642503D01*
X153263978Y-87635002D01*
X153267228Y-87633490D01*
X153297176Y-87611838D01*
X153323022Y-87581238D01*
X153340310Y-87547253D01*
X153342642Y-87539401D01*
X153344374Y-87526144D01*
X153345887Y-87500811D01*
X153347185Y-87463098D01*
X153348271Y-87412700D01*
X153349151Y-87349313D01*
X153349828Y-87272633D01*
X153350306Y-87182355D01*
X153350591Y-87078174D01*
X153350685Y-86959786D01*
X153350685Y-86410800D01*
X153537557Y-86410640D01*
X153595609Y-86410496D01*
X153641074Y-86410094D01*
X153675878Y-86409312D01*
X153701949Y-86408029D01*
X153721213Y-86406123D01*
X153735597Y-86403472D01*
X153747027Y-86399956D01*
X153754175Y-86396972D01*
X153786233Y-86375240D01*
X153808341Y-86345552D01*
X153820069Y-86310904D01*
X153820988Y-86274296D01*
X153810668Y-86238726D01*
X153788679Y-86207192D01*
X153782241Y-86201101D01*
X153759926Y-86185368D01*
X153735526Y-86173519D01*
X153730069Y-86171750D01*
X153717811Y-86170362D01*
X153692507Y-86169112D01*
X153655623Y-86168002D01*
X153608627Y-86167031D01*
X153552987Y-86166202D01*
X153490170Y-86165515D01*
X153421642Y-86164972D01*
X153348872Y-86164573D01*
X153273326Y-86164319D01*
X153196472Y-86164212D01*
X153119776Y-86164252D01*
G36*
X154494429Y-86144312D02*
G01*
X154441460Y-86148781D01*
X154437178Y-86149340D01*
X154336655Y-86169399D01*
X154244706Y-86200971D01*
X154161637Y-86243642D01*
X154087754Y-86296995D01*
X154023364Y-86360617D01*
X153968774Y-86434090D01*
X153924289Y-86516999D01*
X153890217Y-86608929D01*
X153866863Y-86709464D01*
X153854534Y-86818189D01*
X153853536Y-86934688D01*
X153853783Y-86940571D01*
X153863493Y-87050186D01*
X153882694Y-87149498D01*
X153911778Y-87239514D01*
X153951137Y-87321239D01*
X154001161Y-87395678D01*
X154054628Y-87456271D01*
X154116278Y-87511577D01*
X154181792Y-87556166D01*
X154254221Y-87591764D01*
X154336619Y-87620096D01*
X154351597Y-87624250D01*
X154385171Y-87630849D01*
X154429674Y-87636096D01*
X154481572Y-87639897D01*
X154537336Y-87642158D01*
X154593433Y-87642787D01*
X154646333Y-87641689D01*
X154692502Y-87638772D01*
X154727064Y-87634200D01*
X154825220Y-87608971D01*
X154914517Y-87572360D01*
X154994692Y-87524681D01*
X155065483Y-87466245D01*
X155126625Y-87397366D01*
X155177856Y-87318357D01*
X155218912Y-87229531D01*
X155249531Y-87131202D01*
X155269450Y-87023682D01*
X155273878Y-86983568D01*
X155278396Y-86869790D01*
X154971833Y-86869790D01*
X154971771Y-86897028D01*
X154970215Y-86962850D01*
X154965816Y-87017968D01*
X154957876Y-87066032D01*
X154945696Y-87110695D01*
X154928578Y-87155607D01*
X154917644Y-87179952D01*
X154878727Y-87247734D01*
X154831169Y-87304111D01*
X154775786Y-87348691D01*
X154713390Y-87381080D01*
X154644799Y-87400885D01*
X154570826Y-87407713D01*
X154492287Y-87401170D01*
X154468514Y-87396660D01*
X154406792Y-87376336D01*
X154348498Y-87343280D01*
X154295705Y-87299215D01*
X154250490Y-87245858D01*
X154216051Y-87187314D01*
X154197329Y-87146104D01*
X154183194Y-87109308D01*
X154173036Y-87073687D01*
X154166245Y-87036002D01*
X154162208Y-86993013D01*
X154160316Y-86941480D01*
X154159936Y-86889771D01*
X154160159Y-86840040D01*
X154160935Y-86801826D01*
X154162526Y-86772135D01*
X154165193Y-86747970D01*
X154169197Y-86726339D01*
X154174800Y-86704246D01*
X154176723Y-86697457D01*
X154205938Y-86616966D01*
X154243929Y-86547867D01*
X154290594Y-86490272D01*
X154345831Y-86444289D01*
X154409536Y-86410030D01*
X154461357Y-86392478D01*
X154499262Y-86385769D01*
X154545585Y-86382564D01*
X154594661Y-86382852D01*
X154640826Y-86386623D01*
X154674812Y-86392883D01*
X154741755Y-86417514D01*
X154801187Y-86454377D01*
X154852768Y-86503086D01*
X154896158Y-86563254D01*
X154931015Y-86634494D01*
X154955965Y-86712265D01*
X154962447Y-86740143D01*
X154966967Y-86766239D01*
X154969833Y-86794148D01*
X154971352Y-86827466D01*
X154971833Y-86869790D01*
X155278396Y-86869790D01*
X155278414Y-86869342D01*
X155270858Y-86759444D01*
X155251495Y-86654925D01*
X155220611Y-86556835D01*
X155178490Y-86466224D01*
X155125416Y-86384142D01*
X155104115Y-86357396D01*
X155055703Y-86308644D01*
X154996147Y-86263033D01*
X154928774Y-86222550D01*
X154856909Y-86189181D01*
X154783876Y-86164912D01*
X154780342Y-86163996D01*
X154734680Y-86155067D01*
X154678959Y-86148450D01*
X154617478Y-86144330D01*
X154554535Y-86142889D01*
X154494429Y-86144312D01*
G37*
X154494429Y-86144312D02*
X154441460Y-86148781D01*
X154437178Y-86149340D01*
X154336655Y-86169399D01*
X154244706Y-86200971D01*
X154161637Y-86243642D01*
X154087754Y-86296995D01*
X154023364Y-86360617D01*
X153968774Y-86434090D01*
X153924289Y-86516999D01*
X153890217Y-86608929D01*
X153866863Y-86709464D01*
X153854534Y-86818189D01*
X153853536Y-86934688D01*
X153853783Y-86940571D01*
X153863493Y-87050186D01*
X153882694Y-87149498D01*
X153911778Y-87239514D01*
X153951137Y-87321239D01*
X154001161Y-87395678D01*
X154054628Y-87456271D01*
X154116278Y-87511577D01*
X154181792Y-87556166D01*
X154254221Y-87591764D01*
X154336619Y-87620096D01*
X154351597Y-87624250D01*
X154385171Y-87630849D01*
X154429674Y-87636096D01*
X154481572Y-87639897D01*
X154537336Y-87642158D01*
X154593433Y-87642787D01*
X154646333Y-87641689D01*
X154692502Y-87638772D01*
X154727064Y-87634200D01*
X154825220Y-87608971D01*
X154914517Y-87572360D01*
X154994692Y-87524681D01*
X155065483Y-87466245D01*
X155126625Y-87397366D01*
X155177856Y-87318357D01*
X155218912Y-87229531D01*
X155249531Y-87131202D01*
X155269450Y-87023682D01*
X155273878Y-86983568D01*
X155278396Y-86869790D01*
X154971833Y-86869790D01*
X154971771Y-86897028D01*
X154970215Y-86962850D01*
X154965816Y-87017968D01*
X154957876Y-87066032D01*
X154945696Y-87110695D01*
X154928578Y-87155607D01*
X154917644Y-87179952D01*
X154878727Y-87247734D01*
X154831169Y-87304111D01*
X154775786Y-87348691D01*
X154713390Y-87381080D01*
X154644799Y-87400885D01*
X154570826Y-87407713D01*
X154492287Y-87401170D01*
X154468514Y-87396660D01*
X154406792Y-87376336D01*
X154348498Y-87343280D01*
X154295705Y-87299215D01*
X154250490Y-87245858D01*
X154216051Y-87187314D01*
X154197329Y-87146104D01*
X154183194Y-87109308D01*
X154173036Y-87073687D01*
X154166245Y-87036002D01*
X154162208Y-86993013D01*
X154160316Y-86941480D01*
X154159936Y-86889771D01*
X154160159Y-86840040D01*
X154160935Y-86801826D01*
X154162526Y-86772135D01*
X154165193Y-86747970D01*
X154169197Y-86726339D01*
X154174800Y-86704246D01*
X154176723Y-86697457D01*
X154205938Y-86616966D01*
X154243929Y-86547867D01*
X154290594Y-86490272D01*
X154345831Y-86444289D01*
X154409536Y-86410030D01*
X154461357Y-86392478D01*
X154499262Y-86385769D01*
X154545585Y-86382564D01*
X154594661Y-86382852D01*
X154640826Y-86386623D01*
X154674812Y-86392883D01*
X154741755Y-86417514D01*
X154801187Y-86454377D01*
X154852768Y-86503086D01*
X154896158Y-86563254D01*
X154931015Y-86634494D01*
X154955965Y-86712265D01*
X154962447Y-86740143D01*
X154966967Y-86766239D01*
X154969833Y-86794148D01*
X154971352Y-86827466D01*
X154971833Y-86869790D01*
X155278396Y-86869790D01*
X155278414Y-86869342D01*
X155270858Y-86759444D01*
X155251495Y-86654925D01*
X155220611Y-86556835D01*
X155178490Y-86466224D01*
X155125416Y-86384142D01*
X155104115Y-86357396D01*
X155055703Y-86308644D01*
X154996147Y-86263033D01*
X154928774Y-86222550D01*
X154856909Y-86189181D01*
X154783876Y-86164912D01*
X154780342Y-86163996D01*
X154734680Y-86155067D01*
X154678959Y-86148450D01*
X154617478Y-86144330D01*
X154554535Y-86142889D01*
X154494429Y-86144312D01*
G36*
X157592485Y-86144524D02*
G01*
X157522457Y-86148731D01*
X157462509Y-86156204D01*
X157408383Y-86167955D01*
X157355821Y-86185000D01*
X157300564Y-86208349D01*
X157276920Y-86219600D01*
X157242044Y-86237058D01*
X157215023Y-86252164D01*
X157192093Y-86267661D01*
X157169494Y-86286292D01*
X157143463Y-86310800D01*
X157120389Y-86333720D01*
X157089835Y-86364911D01*
X157067102Y-86390003D01*
X157049410Y-86412813D01*
X157033983Y-86437157D01*
X157018041Y-86466853D01*
X157006188Y-86490628D01*
X156975854Y-86558408D01*
X156953002Y-86624368D01*
X156936900Y-86691983D01*
X156926817Y-86764728D01*
X156922021Y-86846076D01*
X156921373Y-86893400D01*
X156926257Y-87007275D01*
X156941358Y-87111293D01*
X156966945Y-87206169D01*
X157003286Y-87292613D01*
X157050650Y-87371340D01*
X157109306Y-87443062D01*
X157140264Y-87474003D01*
X157207887Y-87529451D01*
X157281228Y-87573510D01*
X157361350Y-87606542D01*
X157449314Y-87628911D01*
X157546184Y-87640981D01*
X157635165Y-87643427D01*
X157674201Y-87642822D01*
X157709717Y-87641924D01*
X157738344Y-87640842D01*
X157756708Y-87639686D01*
X157759400Y-87639385D01*
X157828212Y-87625854D01*
X157899696Y-87604353D01*
X157968969Y-87576709D01*
X158031150Y-87544747D01*
X158058200Y-87527618D01*
X158129198Y-87470571D01*
X158190369Y-87403416D01*
X158241889Y-87325868D01*
X158283937Y-87237645D01*
X158316690Y-87138461D01*
X158326193Y-87100228D01*
X158331659Y-87067656D01*
X158336108Y-87024222D01*
X158339428Y-86973550D01*
X158341506Y-86919264D01*
X158341949Y-86886143D01*
X158040688Y-86886143D01*
X158039592Y-86949634D01*
X158035642Y-87003046D01*
X158028156Y-87050651D01*
X158016453Y-87096720D01*
X157999851Y-87145525D01*
X157998904Y-87148049D01*
X157965559Y-87217756D01*
X157922376Y-87277684D01*
X157870650Y-87327166D01*
X157811675Y-87365534D01*
X157746745Y-87392122D01*
X157677155Y-87406263D01*
X157604200Y-87407290D01*
X157529173Y-87394534D01*
X157523542Y-87393016D01*
X157455467Y-87367022D01*
X157395428Y-87329168D01*
X157343720Y-87279871D01*
X157300639Y-87219549D01*
X157266479Y-87148620D01*
X157241537Y-87067501D01*
X157226107Y-86976610D01*
X157225570Y-86971622D01*
X157221281Y-86883150D01*
X157226712Y-86797047D01*
X157241344Y-86715214D01*
X157264661Y-86639548D01*
X157296145Y-86571949D01*
X157335277Y-86514315D01*
X157356722Y-86490650D01*
X157412327Y-86444599D01*
X157474318Y-86411286D01*
X157543201Y-86390512D01*
X157619485Y-86382080D01*
X157635739Y-86381857D01*
X157710864Y-86387363D01*
X157777479Y-86404029D01*
X157836963Y-86432392D01*
X157890697Y-86472988D01*
X157904781Y-86486500D01*
X157950209Y-86541604D01*
X157986984Y-86607085D01*
X158015575Y-86683822D01*
X158021959Y-86706610D01*
X158029644Y-86737959D01*
X158034921Y-86766005D01*
X158038224Y-86794910D01*
X158039987Y-86828837D01*
X158040644Y-86871947D01*
X158040688Y-86886143D01*
X158341949Y-86886143D01*
X158342233Y-86864990D01*
X158341495Y-86814350D01*
X158339182Y-86770970D01*
X158336980Y-86749848D01*
X158316919Y-86646111D01*
X158285712Y-86550352D01*
X158243824Y-86463173D01*
X158191720Y-86385179D01*
X158129863Y-86316976D01*
X158058719Y-86259168D01*
X157978752Y-86212358D01*
X157898876Y-86179885D01*
X157838448Y-86162599D01*
X157777312Y-86151036D01*
X157711755Y-86144768D01*
X157638068Y-86143367D01*
X157592485Y-86144524D01*
G37*
X157592485Y-86144524D02*
X157522457Y-86148731D01*
X157462509Y-86156204D01*
X157408383Y-86167955D01*
X157355821Y-86185000D01*
X157300564Y-86208349D01*
X157276920Y-86219600D01*
X157242044Y-86237058D01*
X157215023Y-86252164D01*
X157192093Y-86267661D01*
X157169494Y-86286292D01*
X157143463Y-86310800D01*
X157120389Y-86333720D01*
X157089835Y-86364911D01*
X157067102Y-86390003D01*
X157049410Y-86412813D01*
X157033983Y-86437157D01*
X157018041Y-86466853D01*
X157006188Y-86490628D01*
X156975854Y-86558408D01*
X156953002Y-86624368D01*
X156936900Y-86691983D01*
X156926817Y-86764728D01*
X156922021Y-86846076D01*
X156921373Y-86893400D01*
X156926257Y-87007275D01*
X156941358Y-87111293D01*
X156966945Y-87206169D01*
X157003286Y-87292613D01*
X157050650Y-87371340D01*
X157109306Y-87443062D01*
X157140264Y-87474003D01*
X157207887Y-87529451D01*
X157281228Y-87573510D01*
X157361350Y-87606542D01*
X157449314Y-87628911D01*
X157546184Y-87640981D01*
X157635165Y-87643427D01*
X157674201Y-87642822D01*
X157709717Y-87641924D01*
X157738344Y-87640842D01*
X157756708Y-87639686D01*
X157759400Y-87639385D01*
X157828212Y-87625854D01*
X157899696Y-87604353D01*
X157968969Y-87576709D01*
X158031150Y-87544747D01*
X158058200Y-87527618D01*
X158129198Y-87470571D01*
X158190369Y-87403416D01*
X158241889Y-87325868D01*
X158283937Y-87237645D01*
X158316690Y-87138461D01*
X158326193Y-87100228D01*
X158331659Y-87067656D01*
X158336108Y-87024222D01*
X158339428Y-86973550D01*
X158341506Y-86919264D01*
X158341949Y-86886143D01*
X158040688Y-86886143D01*
X158039592Y-86949634D01*
X158035642Y-87003046D01*
X158028156Y-87050651D01*
X158016453Y-87096720D01*
X157999851Y-87145525D01*
X157998904Y-87148049D01*
X157965559Y-87217756D01*
X157922376Y-87277684D01*
X157870650Y-87327166D01*
X157811675Y-87365534D01*
X157746745Y-87392122D01*
X157677155Y-87406263D01*
X157604200Y-87407290D01*
X157529173Y-87394534D01*
X157523542Y-87393016D01*
X157455467Y-87367022D01*
X157395428Y-87329168D01*
X157343720Y-87279871D01*
X157300639Y-87219549D01*
X157266479Y-87148620D01*
X157241537Y-87067501D01*
X157226107Y-86976610D01*
X157225570Y-86971622D01*
X157221281Y-86883150D01*
X157226712Y-86797047D01*
X157241344Y-86715214D01*
X157264661Y-86639548D01*
X157296145Y-86571949D01*
X157335277Y-86514315D01*
X157356722Y-86490650D01*
X157412327Y-86444599D01*
X157474318Y-86411286D01*
X157543201Y-86390512D01*
X157619485Y-86382080D01*
X157635739Y-86381857D01*
X157710864Y-86387363D01*
X157777479Y-86404029D01*
X157836963Y-86432392D01*
X157890697Y-86472988D01*
X157904781Y-86486500D01*
X157950209Y-86541604D01*
X157986984Y-86607085D01*
X158015575Y-86683822D01*
X158021959Y-86706610D01*
X158029644Y-86737959D01*
X158034921Y-86766005D01*
X158038224Y-86794910D01*
X158039987Y-86828837D01*
X158040644Y-86871947D01*
X158040688Y-86886143D01*
X158341949Y-86886143D01*
X158342233Y-86864990D01*
X158341495Y-86814350D01*
X158339182Y-86770970D01*
X158336980Y-86749848D01*
X158316919Y-86646111D01*
X158285712Y-86550352D01*
X158243824Y-86463173D01*
X158191720Y-86385179D01*
X158129863Y-86316976D01*
X158058719Y-86259168D01*
X157978752Y-86212358D01*
X157898876Y-86179885D01*
X157838448Y-86162599D01*
X157777312Y-86151036D01*
X157711755Y-86144768D01*
X157638068Y-86143367D01*
X157592485Y-86144524D01*
G36*
X159272514Y-86167909D02*
G01*
X159189327Y-86168008D01*
X159119298Y-86168221D01*
X159061070Y-86168590D01*
X159013288Y-86169159D01*
X158974594Y-86169969D01*
X158943634Y-86171064D01*
X158919050Y-86172485D01*
X158899487Y-86174276D01*
X158883587Y-86176479D01*
X158869996Y-86179136D01*
X158863214Y-86180756D01*
X158788089Y-86206382D01*
X158721578Y-86242851D01*
X158664553Y-86289411D01*
X158617887Y-86345311D01*
X158582454Y-86409797D01*
X158574576Y-86429528D01*
X158567795Y-86450206D01*
X158563210Y-86471129D01*
X158560416Y-86495873D01*
X158559006Y-86528015D01*
X158558575Y-86570457D01*
X158558796Y-86612192D01*
X158559910Y-86642970D01*
X158562341Y-86666341D01*
X158566516Y-86685857D01*
X158572857Y-86705066D01*
X158575509Y-86711971D01*
X158594248Y-86754556D01*
X158614861Y-86788865D01*
X158641266Y-86820675D01*
X158665692Y-86844924D01*
X158699307Y-86871543D01*
X158742585Y-86898450D01*
X158790922Y-86923251D01*
X158839716Y-86943555D01*
X158878582Y-86955606D01*
X158916451Y-86964968D01*
X158882211Y-86988519D01*
X158822978Y-87036089D01*
X158763836Y-87096862D01*
X158705797Y-87169556D01*
X158649874Y-87252888D01*
X158597077Y-87345576D01*
X158590537Y-87358164D01*
X158561045Y-87419625D01*
X158541155Y-87470661D01*
X158530759Y-87511632D01*
X158529748Y-87542901D01*
X158532061Y-87553119D01*
X158551713Y-87592113D01*
X158581179Y-87620575D01*
X158619930Y-87638153D01*
X158667434Y-87644498D01*
X158670171Y-87644514D01*
X158716099Y-87639309D01*
X158755114Y-87622674D01*
X158790779Y-87593079D01*
X158791300Y-87592536D01*
X158800877Y-87580242D01*
X158816699Y-87557254D01*
X158837615Y-87525362D01*
X158862473Y-87486358D01*
X158890120Y-87442035D01*
X158919404Y-87394183D01*
X158928203Y-87379628D01*
X158975535Y-87301675D01*
X159016834Y-87235400D01*
X159053184Y-87179833D01*
X159085667Y-87134001D01*
X159115366Y-87096932D01*
X159143364Y-87067654D01*
X159170743Y-87045195D01*
X159198585Y-87028584D01*
X159227974Y-87016848D01*
X159259992Y-87009015D01*
X159295722Y-87004114D01*
X159336246Y-87001173D01*
X159350528Y-87000481D01*
X159439428Y-86996517D01*
X159439470Y-87235244D01*
X159439694Y-87294893D01*
X159440309Y-87351775D01*
X159441261Y-87403766D01*
X159442498Y-87448740D01*
X159443966Y-87484575D01*
X159445612Y-87509145D01*
X159446537Y-87516870D01*
X159459940Y-87564722D01*
X159482602Y-87601417D01*
X159514439Y-87626880D01*
X159555366Y-87641040D01*
X159593353Y-87644193D01*
X159637223Y-87639845D01*
X159665630Y-87629805D01*
X159698127Y-87604718D01*
X159721710Y-87568367D01*
X159728604Y-87550903D01*
X159730671Y-87537703D01*
X159732467Y-87512220D01*
X159733992Y-87476130D01*
X159735248Y-87431112D01*
X159736238Y-87378844D01*
X159736961Y-87321004D01*
X159737420Y-87259270D01*
X159737617Y-87195319D01*
X159737553Y-87130831D01*
X159737229Y-87067482D01*
X159736648Y-87006951D01*
X159735810Y-86950915D01*
X159734717Y-86901053D01*
X159733372Y-86859044D01*
X159731774Y-86826563D01*
X159729927Y-86805291D01*
X159727900Y-86796954D01*
X159718181Y-86794916D01*
X159694412Y-86793016D01*
X159657056Y-86791270D01*
X159606577Y-86789691D01*
X159543437Y-86788295D01*
X159468101Y-86787096D01*
X159392257Y-86786218D01*
X159311626Y-86785347D01*
X159244132Y-86784431D01*
X159188398Y-86783412D01*
X159143047Y-86782236D01*
X159106701Y-86780845D01*
X159077983Y-86779185D01*
X159055517Y-86777199D01*
X159037924Y-86774832D01*
X159023828Y-86772027D01*
X159020100Y-86771098D01*
X158963909Y-86752336D01*
X158920691Y-86728235D01*
X158889563Y-86697787D01*
X158869645Y-86659985D01*
X158860055Y-86613819D01*
X158858857Y-86586629D01*
X158865049Y-86533206D01*
X158883453Y-86487559D01*
X158913811Y-86450038D01*
X158955865Y-86420991D01*
X158992487Y-86405768D01*
X159002803Y-86402885D01*
X159015645Y-86400449D01*
X159032336Y-86398408D01*
X159054198Y-86396709D01*
X159082552Y-86395302D01*
X159118720Y-86394133D01*
X159164024Y-86393152D01*
X159219785Y-86392305D01*
X159287326Y-86391541D01*
X159367969Y-86390807D01*
X159374055Y-86390757D01*
X159464526Y-86389844D01*
X159542159Y-86388721D01*
X159606674Y-86387395D01*
X159657790Y-86385875D01*
X159695224Y-86384169D01*
X159718697Y-86382286D01*
X159727841Y-86380314D01*
X159733453Y-86368118D01*
X159736357Y-86346039D01*
X159736622Y-86318442D01*
X159734319Y-86289690D01*
X159729515Y-86264148D01*
X159725809Y-86252989D01*
X159710088Y-86223261D01*
X159689273Y-86201331D01*
X159660771Y-86183242D01*
X159653874Y-86179715D01*
X159646627Y-86176768D01*
X159637740Y-86174347D01*
X159625925Y-86172404D01*
X159609891Y-86170886D01*
X159588350Y-86169744D01*
X159560013Y-86168925D01*
X159523589Y-86168380D01*
X159477790Y-86168056D01*
X159421326Y-86167904D01*
X159352909Y-86167872D01*
X159272514Y-86167909D01*
G37*
X159272514Y-86167909D02*
X159189327Y-86168008D01*
X159119298Y-86168221D01*
X159061070Y-86168590D01*
X159013288Y-86169159D01*
X158974594Y-86169969D01*
X158943634Y-86171064D01*
X158919050Y-86172485D01*
X158899487Y-86174276D01*
X158883587Y-86176479D01*
X158869996Y-86179136D01*
X158863214Y-86180756D01*
X158788089Y-86206382D01*
X158721578Y-86242851D01*
X158664553Y-86289411D01*
X158617887Y-86345311D01*
X158582454Y-86409797D01*
X158574576Y-86429528D01*
X158567795Y-86450206D01*
X158563210Y-86471129D01*
X158560416Y-86495873D01*
X158559006Y-86528015D01*
X158558575Y-86570457D01*
X158558796Y-86612192D01*
X158559910Y-86642970D01*
X158562341Y-86666341D01*
X158566516Y-86685857D01*
X158572857Y-86705066D01*
X158575509Y-86711971D01*
X158594248Y-86754556D01*
X158614861Y-86788865D01*
X158641266Y-86820675D01*
X158665692Y-86844924D01*
X158699307Y-86871543D01*
X158742585Y-86898450D01*
X158790922Y-86923251D01*
X158839716Y-86943555D01*
X158878582Y-86955606D01*
X158916451Y-86964968D01*
X158882211Y-86988519D01*
X158822978Y-87036089D01*
X158763836Y-87096862D01*
X158705797Y-87169556D01*
X158649874Y-87252888D01*
X158597077Y-87345576D01*
X158590537Y-87358164D01*
X158561045Y-87419625D01*
X158541155Y-87470661D01*
X158530759Y-87511632D01*
X158529748Y-87542901D01*
X158532061Y-87553119D01*
X158551713Y-87592113D01*
X158581179Y-87620575D01*
X158619930Y-87638153D01*
X158667434Y-87644498D01*
X158670171Y-87644514D01*
X158716099Y-87639309D01*
X158755114Y-87622674D01*
X158790779Y-87593079D01*
X158791300Y-87592536D01*
X158800877Y-87580242D01*
X158816699Y-87557254D01*
X158837615Y-87525362D01*
X158862473Y-87486358D01*
X158890120Y-87442035D01*
X158919404Y-87394183D01*
X158928203Y-87379628D01*
X158975535Y-87301675D01*
X159016834Y-87235400D01*
X159053184Y-87179833D01*
X159085667Y-87134001D01*
X159115366Y-87096932D01*
X159143364Y-87067654D01*
X159170743Y-87045195D01*
X159198585Y-87028584D01*
X159227974Y-87016848D01*
X159259992Y-87009015D01*
X159295722Y-87004114D01*
X159336246Y-87001173D01*
X159350528Y-87000481D01*
X159439428Y-86996517D01*
X159439470Y-87235244D01*
X159439694Y-87294893D01*
X159440309Y-87351775D01*
X159441261Y-87403766D01*
X159442498Y-87448740D01*
X159443966Y-87484575D01*
X159445612Y-87509145D01*
X159446537Y-87516870D01*
X159459940Y-87564722D01*
X159482602Y-87601417D01*
X159514439Y-87626880D01*
X159555366Y-87641040D01*
X159593353Y-87644193D01*
X159637223Y-87639845D01*
X159665630Y-87629805D01*
X159698127Y-87604718D01*
X159721710Y-87568367D01*
X159728604Y-87550903D01*
X159730671Y-87537703D01*
X159732467Y-87512220D01*
X159733992Y-87476130D01*
X159735248Y-87431112D01*
X159736238Y-87378844D01*
X159736961Y-87321004D01*
X159737420Y-87259270D01*
X159737617Y-87195319D01*
X159737553Y-87130831D01*
X159737229Y-87067482D01*
X159736648Y-87006951D01*
X159735810Y-86950915D01*
X159734717Y-86901053D01*
X159733372Y-86859044D01*
X159731774Y-86826563D01*
X159729927Y-86805291D01*
X159727900Y-86796954D01*
X159718181Y-86794916D01*
X159694412Y-86793016D01*
X159657056Y-86791270D01*
X159606577Y-86789691D01*
X159543437Y-86788295D01*
X159468101Y-86787096D01*
X159392257Y-86786218D01*
X159311626Y-86785347D01*
X159244132Y-86784431D01*
X159188398Y-86783412D01*
X159143047Y-86782236D01*
X159106701Y-86780845D01*
X159077983Y-86779185D01*
X159055517Y-86777199D01*
X159037924Y-86774832D01*
X159023828Y-86772027D01*
X159020100Y-86771098D01*
X158963909Y-86752336D01*
X158920691Y-86728235D01*
X158889563Y-86697787D01*
X158869645Y-86659985D01*
X158860055Y-86613819D01*
X158858857Y-86586629D01*
X158865049Y-86533206D01*
X158883453Y-86487559D01*
X158913811Y-86450038D01*
X158955865Y-86420991D01*
X158992487Y-86405768D01*
X159002803Y-86402885D01*
X159015645Y-86400449D01*
X159032336Y-86398408D01*
X159054198Y-86396709D01*
X159082552Y-86395302D01*
X159118720Y-86394133D01*
X159164024Y-86393152D01*
X159219785Y-86392305D01*
X159287326Y-86391541D01*
X159367969Y-86390807D01*
X159374055Y-86390757D01*
X159464526Y-86389844D01*
X159542159Y-86388721D01*
X159606674Y-86387395D01*
X159657790Y-86385875D01*
X159695224Y-86384169D01*
X159718697Y-86382286D01*
X159727841Y-86380314D01*
X159733453Y-86368118D01*
X159736357Y-86346039D01*
X159736622Y-86318442D01*
X159734319Y-86289690D01*
X159729515Y-86264148D01*
X159725809Y-86252989D01*
X159710088Y-86223261D01*
X159689273Y-86201331D01*
X159660771Y-86183242D01*
X159653874Y-86179715D01*
X159646627Y-86176768D01*
X159637740Y-86174347D01*
X159625925Y-86172404D01*
X159609891Y-86170886D01*
X159588350Y-86169744D01*
X159560013Y-86168925D01*
X159523589Y-86168380D01*
X159477790Y-86168056D01*
X159421326Y-86167904D01*
X159352909Y-86167872D01*
X159272514Y-86167909D01*
G36*
X152899729Y-83231807D02*
G01*
X152897207Y-83251067D01*
X152894353Y-83280566D01*
X152891367Y-83318173D01*
X152888447Y-83361761D01*
X152887625Y-83375500D01*
X152869787Y-83594788D01*
X152842168Y-83811127D01*
X152805096Y-84023467D01*
X152758899Y-84230755D01*
X152703905Y-84431939D01*
X152640442Y-84625968D01*
X152568838Y-84811789D01*
X152489421Y-84988351D01*
X152402519Y-85154602D01*
X152308459Y-85309490D01*
X152264250Y-85374683D01*
X152164213Y-85506497D01*
X152055765Y-85629369D01*
X151939994Y-85742382D01*
X151817988Y-85844620D01*
X151690836Y-85935167D01*
X151559625Y-86013106D01*
X151433984Y-86073870D01*
X151382877Y-86095716D01*
X151341950Y-86112414D01*
X151308112Y-86124692D01*
X151278272Y-86133279D01*
X151249338Y-86138901D01*
X151218219Y-86142289D01*
X151181823Y-86144168D01*
X151137060Y-86145268D01*
X151130293Y-86145395D01*
X151068056Y-86147347D01*
X151016837Y-86151118D01*
X150973183Y-86157400D01*
X150933643Y-86166885D01*
X150894762Y-86180266D01*
X150853089Y-86198236D01*
X150842805Y-86203063D01*
X150778358Y-86237023D01*
X150723173Y-86274085D01*
X150672006Y-86317922D01*
X150654657Y-86334960D01*
X150630931Y-86358093D01*
X150610060Y-86375680D01*
X150588043Y-86390353D01*
X150560881Y-86404745D01*
X150524573Y-86421489D01*
X150520400Y-86423344D01*
X150479423Y-86441665D01*
X150434754Y-86461876D01*
X150392645Y-86481137D01*
X150367513Y-86492780D01*
X150298084Y-86525206D01*
X150289910Y-86477487D01*
X150271361Y-86410963D01*
X150239852Y-86349988D01*
X150196096Y-86295237D01*
X150140805Y-86247386D01*
X150074689Y-86207110D01*
X149998461Y-86175084D01*
X149957971Y-86162699D01*
X149935541Y-86157078D01*
X149913679Y-86152930D01*
X149889579Y-86150030D01*
X149860433Y-86148154D01*
X149823434Y-86147080D01*
X149775775Y-86146583D01*
X149754771Y-86146500D01*
X149701255Y-86146581D01*
X149659669Y-86147281D01*
X149627439Y-86148772D01*
X149601986Y-86151225D01*
X149580737Y-86154813D01*
X149562457Y-86159327D01*
X149484237Y-86186572D01*
X149414699Y-86221536D01*
X149354800Y-86263311D01*
X149305500Y-86310989D01*
X149267756Y-86363661D01*
X149242525Y-86420420D01*
X149231409Y-86473269D01*
X149229732Y-86502723D01*
X149232731Y-86525340D01*
X149241393Y-86548318D01*
X149241817Y-86549230D01*
X149256151Y-86577262D01*
X149269983Y-86596325D01*
X149287348Y-86611237D01*
X149301328Y-86620311D01*
X149333295Y-86632598D01*
X149369835Y-86635689D01*
X149404900Y-86629525D01*
X149422514Y-86621484D01*
X149440560Y-86606429D01*
X149461457Y-86581128D01*
X149486001Y-86544494D01*
X149514991Y-86495440D01*
X149515600Y-86494363D01*
X149548535Y-86445994D01*
X149586711Y-86406933D01*
X149627801Y-86379423D01*
X149641249Y-86373401D01*
X149678805Y-86363223D01*
X149725196Y-86357440D01*
X149775498Y-86356059D01*
X149824790Y-86359084D01*
X149868150Y-86366520D01*
X149889375Y-86373143D01*
X149940887Y-86398646D01*
X149979653Y-86429433D01*
X150005320Y-86465057D01*
X150017536Y-86505072D01*
X150017919Y-86535187D01*
X150011383Y-86566932D01*
X149996990Y-86593886D01*
X149972365Y-86619798D01*
X149955717Y-86633348D01*
X149939079Y-86644995D01*
X149920078Y-86655707D01*
X149896894Y-86666130D01*
X149867709Y-86676909D01*
X149830702Y-86688691D01*
X149784056Y-86702121D01*
X149725949Y-86717844D01*
X149693677Y-86726336D01*
X149624223Y-86744846D01*
X149566597Y-86761086D01*
X149518442Y-86775859D01*
X149477403Y-86789968D01*
X149441121Y-86804216D01*
X149407241Y-86819404D01*
X149378517Y-86833682D01*
X149312087Y-86874942D01*
X149257757Y-86923768D01*
X149215775Y-86979881D01*
X149186390Y-87043003D01*
X149183652Y-87051256D01*
X149175327Y-87088412D01*
X149170100Y-87134644D01*
X149168114Y-87184820D01*
X149169513Y-87233806D01*
X149174440Y-87276469D01*
X149177014Y-87288914D01*
X149195309Y-87343999D01*
X149222956Y-87400486D01*
X149256794Y-87452429D01*
X149277034Y-87477054D01*
X149317066Y-87521291D01*
X149300061Y-87602859D01*
X149294586Y-87630478D01*
X149290421Y-87655738D01*
X149287395Y-87681289D01*
X149285335Y-87709781D01*
X149284070Y-87743864D01*
X149283428Y-87786186D01*
X149283238Y-87839396D01*
X149283247Y-87862228D01*
X149283501Y-87922611D01*
X149284239Y-87971385D01*
X149285635Y-88011454D01*
X149287865Y-88045718D01*
X149291107Y-88077081D01*
X149295535Y-88108445D01*
X149299697Y-88133464D01*
X149334146Y-88297524D01*
X149381403Y-88467210D01*
X149393251Y-88504486D01*
X149405130Y-88539983D01*
X149419201Y-88580267D01*
X149434671Y-88623263D01*
X149450749Y-88666892D01*
X149466646Y-88709078D01*
X149481571Y-88747744D01*
X149494732Y-88780813D01*
X149505340Y-88806208D01*
X149512602Y-88821852D01*
X149515616Y-88825888D01*
X149514101Y-88818579D01*
X149508269Y-88800039D01*
X149498913Y-88772619D01*
X149486827Y-88738671D01*
X149478291Y-88715320D01*
X149434751Y-88588763D01*
X149395701Y-88458018D01*
X149362272Y-88327388D01*
X149335593Y-88201176D01*
X149321852Y-88119857D01*
X149318150Y-88085699D01*
X149315265Y-88039275D01*
X149313289Y-87982813D01*
X149312315Y-87918543D01*
X149312228Y-87887628D01*
X149312736Y-87820221D01*
X149314335Y-87764363D01*
X149317328Y-87717113D01*
X149322018Y-87675527D01*
X149328709Y-87636661D01*
X149337703Y-87597574D01*
X149344817Y-87571046D01*
X149352175Y-87544749D01*
X149415587Y-87576650D01*
X149462750Y-87598615D01*
X149507505Y-87615179D01*
X149553387Y-87627118D01*
X149603932Y-87635212D01*
X149662675Y-87640236D01*
X149714857Y-87642477D01*
X149770571Y-87643601D01*
X149815607Y-87643096D01*
X149853724Y-87640800D01*
X149888685Y-87636549D01*
X149902149Y-87634348D01*
X149991881Y-87612445D01*
X150072327Y-87579658D01*
X150143233Y-87536170D01*
X150204342Y-87482165D01*
X150255399Y-87417825D01*
X150289867Y-87356896D01*
X150311582Y-87301947D01*
X150322848Y-87250361D01*
X150323458Y-87204053D01*
X150313204Y-87164938D01*
X150311076Y-87160508D01*
X150285237Y-87124505D01*
X150251147Y-87099956D01*
X150210561Y-87087801D01*
X150174871Y-87087599D01*
X150150949Y-87092245D01*
X150130380Y-87101459D01*
X150111531Y-87116994D01*
X150092769Y-87140604D01*
X150072460Y-87174044D01*
X150048972Y-87219067D01*
X150045023Y-87227030D01*
X150023679Y-87269140D01*
X150006159Y-87300636D01*
X149990671Y-87324290D01*
X149975419Y-87342870D01*
X149960672Y-87357313D01*
X149916726Y-87389090D01*
X149866205Y-87410538D01*
X149806902Y-87422481D01*
X149780171Y-87424786D01*
X149705314Y-87423691D01*
X149638367Y-87411295D01*
X149579900Y-87387790D01*
X149530482Y-87353364D01*
X149512327Y-87335437D01*
X149494242Y-87314202D01*
X149480287Y-87295137D01*
X149473442Y-87282317D01*
X149473407Y-87282188D01*
X149475674Y-87267939D01*
X149486340Y-87245121D01*
X149503928Y-87215801D01*
X149526960Y-87182043D01*
X149553958Y-87145913D01*
X149583444Y-87109479D01*
X149613940Y-87074805D01*
X149643480Y-87044429D01*
X149655890Y-87032963D01*
X149667812Y-87023988D01*
X149681835Y-87016462D01*
X149700549Y-87009344D01*
X149726544Y-87001590D01*
X149762410Y-86992159D01*
X149791670Y-86984778D01*
X149875787Y-86962649D01*
X149947265Y-86941356D01*
X150007885Y-86920102D01*
X150059429Y-86898088D01*
X150103680Y-86874519D01*
X150142418Y-86848594D01*
X150177427Y-86819518D01*
X150192063Y-86805566D01*
X150233883Y-86758680D01*
X150263298Y-86712268D01*
X150282005Y-86663377D01*
X150287356Y-86639921D01*
X150292372Y-86618396D01*
X150297768Y-86603026D01*
X150300052Y-86599381D01*
X150308454Y-86594513D01*
X150327251Y-86585268D01*
X150353954Y-86572752D01*
X150386070Y-86558072D01*
X150421110Y-86542334D01*
X150456582Y-86526644D01*
X150489995Y-86512109D01*
X150518858Y-86499835D01*
X150540680Y-86490928D01*
X150552971Y-86486495D01*
X150554740Y-86486264D01*
X150554155Y-86493919D01*
X150549631Y-86508237D01*
X150544461Y-86531581D01*
X150542389Y-86562346D01*
X150543284Y-86594987D01*
X150547015Y-86623960D01*
X150552796Y-86642524D01*
X150576886Y-86674390D01*
X150609820Y-86697496D01*
X150647931Y-86710113D01*
X150687553Y-86710511D01*
X150694226Y-86709228D01*
X150715745Y-86703371D01*
X150733790Y-86695266D01*
X150750142Y-86683041D01*
X150766585Y-86664820D01*
X150784903Y-86638729D01*
X150806881Y-86602894D01*
X150824873Y-86571918D01*
X150868316Y-86507948D01*
X150917795Y-86456633D01*
X150972907Y-86418310D01*
X151033250Y-86393317D01*
X151039285Y-86391636D01*
X151070927Y-86386066D01*
X151111324Y-86382971D01*
X151154922Y-86382416D01*
X151196164Y-86384464D01*
X151229494Y-86389176D01*
X151230788Y-86389468D01*
X151293706Y-86411260D01*
X151350942Y-86445898D01*
X151401782Y-86492593D01*
X151445511Y-86550553D01*
X151481417Y-86618986D01*
X151508784Y-86697103D01*
X151508882Y-86697457D01*
X151514390Y-86718894D01*
X151518483Y-86739426D01*
X151521363Y-86761724D01*
X151523230Y-86788460D01*
X151524289Y-86822305D01*
X151524741Y-86865932D01*
X151524802Y-86907914D01*
X151524681Y-86959382D01*
X151524226Y-86999022D01*
X151523190Y-87029517D01*
X151521322Y-87053555D01*
X151518377Y-87073818D01*
X151514105Y-87092994D01*
X151508259Y-87113766D01*
X151504706Y-87125469D01*
X151484247Y-87184012D01*
X151461520Y-87231910D01*
X151434494Y-87273032D01*
X151414861Y-87296630D01*
X151364351Y-87342614D01*
X151306536Y-87376211D01*
X151241180Y-87397518D01*
X151168051Y-87406632D01*
X151151771Y-87407006D01*
X151075903Y-87401748D01*
X151008443Y-87384774D01*
X150949117Y-87355893D01*
X150897653Y-87314913D01*
X150853776Y-87261643D01*
X150817213Y-87195890D01*
X150803312Y-87162800D01*
X150783478Y-87115699D01*
X150764345Y-87081194D01*
X150744128Y-87057582D01*
X150721039Y-87043161D01*
X150693291Y-87036227D01*
X150669148Y-87034914D01*
X150623408Y-87040631D01*
X150586773Y-87057305D01*
X150559720Y-87084226D01*
X150542724Y-87120679D01*
X150536261Y-87165954D01*
X150540807Y-87219336D01*
X150541928Y-87225305D01*
X150563517Y-87298423D01*
X150598124Y-87368156D01*
X150644395Y-87433140D01*
X150700975Y-87492012D01*
X150766510Y-87543408D01*
X150839644Y-87585964D01*
X150919023Y-87618317D01*
X150938180Y-87624217D01*
X150959262Y-87629962D01*
X150978964Y-87634209D01*
X150999986Y-87637169D01*
X151025029Y-87639054D01*
X151056792Y-87640076D01*
X151097975Y-87640446D01*
X151144514Y-87640400D01*
X151209368Y-87639587D01*
X151262778Y-87637217D01*
X151307783Y-87632694D01*
X151347423Y-87625424D01*
X151384735Y-87614812D01*
X151422760Y-87600260D01*
X151464535Y-87581176D01*
X151476441Y-87575370D01*
X151547428Y-87532570D01*
X151612860Y-87477404D01*
X151671727Y-87411293D01*
X151723016Y-87335656D01*
X151765716Y-87251914D01*
X151798814Y-87161487D01*
X151814414Y-87101114D01*
X151822007Y-87054740D01*
X151827287Y-86998466D01*
X151830227Y-86936239D01*
X151830802Y-86872004D01*
X151828986Y-86809707D01*
X151824755Y-86753293D01*
X151818082Y-86706707D01*
X151817002Y-86701430D01*
X151788570Y-86598385D01*
X151749490Y-86504728D01*
X151699991Y-86420764D01*
X151640302Y-86346799D01*
X151570652Y-86283137D01*
X151491271Y-86230083D01*
X151444802Y-86206121D01*
X151422180Y-86195173D01*
X151406182Y-86186732D01*
X151399925Y-86182453D01*
X151399970Y-86182303D01*
X151407065Y-86178896D01*
X151424928Y-86170873D01*
X151451001Y-86159367D01*
X151482727Y-86145515D01*
X151488749Y-86142900D01*
X151635289Y-86071434D01*
X151775797Y-85986961D01*
X151910064Y-85889773D01*
X152037879Y-85780157D01*
X152159032Y-85658404D01*
X152273311Y-85524804D01*
X152380507Y-85379645D01*
X152480410Y-85223219D01*
X152572808Y-85055814D01*
X152657491Y-84877720D01*
X152734249Y-84689228D01*
X152802872Y-84490626D01*
X152863149Y-84282204D01*
X152875622Y-84233657D01*
X152925534Y-84013676D01*
X152965757Y-83790861D01*
X152995363Y-83570469D01*
X152999301Y-83533343D01*
X153003440Y-83493976D01*
X153007260Y-83459992D01*
X153010462Y-83433875D01*
X153012748Y-83418111D01*
X153013598Y-83414597D01*
X153020369Y-83417245D01*
X153039621Y-83425582D01*
X153070626Y-83439282D01*
X153112659Y-83458015D01*
X153164992Y-83481455D01*
X153226898Y-83509273D01*
X153297649Y-83541142D01*
X153376519Y-83576733D01*
X153462781Y-83615719D01*
X153555708Y-83657772D01*
X153654572Y-83702564D01*
X153758647Y-83749768D01*
X153867206Y-83799055D01*
X153979521Y-83850097D01*
X153999314Y-83859097D01*
X154112277Y-83910449D01*
X154221651Y-83960135D01*
X154326704Y-84007823D01*
X154426706Y-84053184D01*
X154520926Y-84095887D01*
X154608634Y-84135602D01*
X154689099Y-84171999D01*
X154761591Y-84204748D01*
X154825379Y-84233518D01*
X154879733Y-84257980D01*
X154923921Y-84277802D01*
X154957215Y-84292655D01*
X154978882Y-84302209D01*
X154988192Y-84306133D01*
X154988492Y-84306217D01*
X154992180Y-84299566D01*
X154999119Y-84280982D01*
X155008636Y-84252504D01*
X155020056Y-84216172D01*
X155032707Y-84174025D01*
X155037016Y-84159259D01*
X155049962Y-84115195D01*
X155061861Y-84075828D01*
X155072036Y-84043311D01*
X155079809Y-84019793D01*
X155084501Y-84007429D01*
X155085218Y-84006204D01*
X155091974Y-84009150D01*
X155110715Y-84018991D01*
X155140842Y-84035387D01*
X155181758Y-84057999D01*
X155232864Y-84086490D01*
X155293561Y-84120520D01*
X155363251Y-84159750D01*
X155441335Y-84203843D01*
X155527215Y-84252460D01*
X155620291Y-84305261D01*
X155719967Y-84361909D01*
X155825642Y-84422065D01*
X155936718Y-84485389D01*
X156052598Y-84551545D01*
X156172682Y-84620192D01*
X156296371Y-84690992D01*
X156351951Y-84722836D01*
X156477021Y-84794490D01*
X156598726Y-84864171D01*
X156716466Y-84931538D01*
X156829646Y-84996251D01*
X156937668Y-85057971D01*
X157039935Y-85116356D01*
X157135849Y-85171068D01*
X157224814Y-85221766D01*
X157306232Y-85268109D01*
X157379506Y-85309759D01*
X157444039Y-85346374D01*
X157499233Y-85377616D01*
X157544492Y-85403143D01*
X157579218Y-85422616D01*
X157602815Y-85435695D01*
X157614684Y-85442039D01*
X157616038Y-85442609D01*
X157613656Y-85435663D01*
X157605856Y-85416429D01*
X157593069Y-85385900D01*
X157575722Y-85345073D01*
X157554243Y-85294945D01*
X157529061Y-85236510D01*
X157500606Y-85170764D01*
X157469304Y-85098703D01*
X157435585Y-85021324D01*
X157399877Y-84939621D01*
X157383386Y-84901963D01*
X157346978Y-84818740D01*
X157312413Y-84739458D01*
X157280117Y-84665104D01*
X157250511Y-84596667D01*
X157224021Y-84535135D01*
X157201069Y-84481496D01*
X157182079Y-84436739D01*
X157167474Y-84401852D01*
X157157680Y-84377822D01*
X157153118Y-84365640D01*
X157152889Y-84364286D01*
X157165888Y-84366543D01*
X157190985Y-84372968D01*
X157226542Y-84383040D01*
X157270920Y-84396240D01*
X157322483Y-84412047D01*
X157379591Y-84429942D01*
X157440606Y-84449403D01*
X157503890Y-84469912D01*
X157567805Y-84490948D01*
X157630713Y-84511990D01*
X157690976Y-84532519D01*
X157746954Y-84552015D01*
X157770285Y-84560303D01*
X157967432Y-84632539D01*
X158161456Y-84707165D01*
X158354452Y-84785088D01*
X158548515Y-84867214D01*
X158745739Y-84954452D01*
X158948219Y-85047707D01*
X159158048Y-85147887D01*
X159377322Y-85255899D01*
X159381371Y-85257922D01*
X159594830Y-85365976D01*
X159797052Y-85471289D01*
X159990688Y-85575339D01*
X160178389Y-85679604D01*
X160362806Y-85785561D01*
X160546588Y-85894690D01*
X160732388Y-86008469D01*
X160776217Y-86035783D01*
X160962748Y-86152396D01*
X160904794Y-86169128D01*
X160825176Y-86198047D01*
X160750918Y-86236666D01*
X160683657Y-86283579D01*
X160625033Y-86337381D01*
X160576682Y-86396668D01*
X160540242Y-86460034D01*
X160526831Y-86493300D01*
X160518510Y-86526963D01*
X160514464Y-86564321D01*
X160514783Y-86600454D01*
X160519558Y-86630442D01*
X160524110Y-86642524D01*
X160548474Y-86674743D01*
X160581737Y-86697861D01*
X160620336Y-86710217D01*
X160660711Y-86710151D01*
X160666630Y-86708983D01*
X160692647Y-86700986D01*
X160714247Y-86688443D01*
X160734194Y-86668885D01*
X160755255Y-86639839D01*
X160769405Y-86617112D01*
X160807849Y-86556138D01*
X160843108Y-86507242D01*
X160876840Y-86468817D01*
X160910704Y-86439257D01*
X160946360Y-86416959D01*
X160985466Y-86400316D01*
X160997543Y-86396363D01*
X161046553Y-86385913D01*
X161102136Y-86381606D01*
X161158380Y-86383464D01*
X161209370Y-86391508D01*
X161224025Y-86395520D01*
X161287221Y-86422564D01*
X161343184Y-86461719D01*
X161391456Y-86512259D01*
X161431578Y-86573458D01*
X161463091Y-86644591D01*
X161485536Y-86724930D01*
X161498453Y-86813750D01*
X161499804Y-86831714D01*
X161502006Y-86935639D01*
X161494782Y-87030181D01*
X161478359Y-87114996D01*
X161452967Y-87189739D01*
X161418833Y-87254065D01*
X161376183Y-87307628D01*
X161325248Y-87350086D01*
X161266253Y-87381092D01*
X161199428Y-87400302D01*
X161124999Y-87407370D01*
X161119457Y-87407401D01*
X161044356Y-87401449D01*
X160977327Y-87383516D01*
X160918210Y-87353488D01*
X160866844Y-87311248D01*
X160823067Y-87256683D01*
X160786719Y-87189677D01*
X160775104Y-87161666D01*
X160755251Y-87114719D01*
X160735932Y-87080390D01*
X160715329Y-87056974D01*
X160691626Y-87042765D01*
X160663004Y-87036059D01*
X160640003Y-87034914D01*
X160594902Y-87040830D01*
X160558170Y-87058427D01*
X160530191Y-87087484D01*
X160520447Y-87104468D01*
X160511298Y-87126502D01*
X160507254Y-87147260D01*
X160507351Y-87173231D01*
X160508306Y-87186213D01*
X160521481Y-87258397D01*
X160547924Y-87328325D01*
X160586421Y-87394675D01*
X160635757Y-87456122D01*
X160694716Y-87511341D01*
X160762084Y-87559008D01*
X160836644Y-87597799D01*
X160910457Y-87624481D01*
X160931291Y-87630144D01*
X160950933Y-87634328D01*
X160972070Y-87637242D01*
X160997391Y-87639094D01*
X161029586Y-87640094D01*
X161071343Y-87640448D01*
X161115828Y-87640400D01*
X161180817Y-87639579D01*
X161234343Y-87637192D01*
X161279425Y-87632650D01*
X161319081Y-87625368D01*
X161356331Y-87614757D01*
X161394193Y-87600229D01*
X161435686Y-87581198D01*
X161446028Y-87576138D01*
X161522421Y-87530413D01*
X161591004Y-87472680D01*
X161651373Y-87403413D01*
X161703125Y-87323086D01*
X161745856Y-87232173D01*
X161751637Y-87217187D01*
X161768462Y-87169458D01*
X161781201Y-87125523D01*
X161790363Y-87082031D01*
X161796459Y-87035634D01*
X161799997Y-86982982D01*
X161801489Y-86920727D01*
X161801628Y-86888798D01*
X161801628Y-86746310D01*
X161834285Y-86773034D01*
X161851162Y-86786833D01*
X161876518Y-86807555D01*
X161907593Y-86832942D01*
X161941623Y-86860737D01*
X161962295Y-86877618D01*
X162057647Y-86955480D01*
X162036406Y-86994697D01*
X162012433Y-87052976D01*
X161998559Y-87119122D01*
X161995096Y-87190289D01*
X162002353Y-87263629D01*
X162005389Y-87279630D01*
X162027684Y-87352635D01*
X162062784Y-87419543D01*
X162109977Y-87479538D01*
X162168551Y-87531802D01*
X162237792Y-87575520D01*
X162282201Y-87596489D01*
X162308741Y-87606035D01*
X162343875Y-87616465D01*
X162381902Y-87626154D01*
X162401100Y-87630395D01*
X162430847Y-87636160D01*
X162457573Y-87640176D01*
X162484702Y-87642644D01*
X162515655Y-87643766D01*
X162553856Y-87643740D01*
X162602728Y-87642769D01*
X162609348Y-87642602D01*
X162742153Y-87639194D01*
X162787571Y-87698097D01*
X162879081Y-87824124D01*
X162956870Y-87947187D01*
X163021276Y-88067929D01*
X163072636Y-88186993D01*
X163111289Y-88305021D01*
X163116111Y-88323057D01*
X163124066Y-88355048D01*
X163129691Y-88382219D01*
X163133380Y-88408385D01*
X163135530Y-88437360D01*
X163136534Y-88472955D01*
X163136787Y-88518986D01*
X163136787Y-88522628D01*
X163136505Y-88570348D01*
X163135476Y-88606933D01*
X163133384Y-88635757D01*
X163129915Y-88660195D01*
X163124754Y-88683619D01*
X163120192Y-88700428D01*
X163085702Y-88795065D01*
X163037210Y-88886669D01*
X162974995Y-88974792D01*
X162899337Y-89058984D01*
X162892418Y-89065824D01*
X162805394Y-89142555D01*
X162710623Y-89209505D01*
X162607291Y-89267044D01*
X162494589Y-89315539D01*
X162371703Y-89355359D01*
X162237822Y-89386872D01*
X162152125Y-89401908D01*
X162099656Y-89408304D01*
X162035543Y-89413291D01*
X161962587Y-89416851D01*
X161883592Y-89418970D01*
X161801359Y-89419633D01*
X161718691Y-89418823D01*
X161638391Y-89416527D01*
X161563261Y-89412727D01*
X161496104Y-89407410D01*
X161478685Y-89405600D01*
X161270621Y-89377761D01*
X161055559Y-89339411D01*
X160832991Y-89290431D01*
X160602405Y-89230702D01*
X160363292Y-89160104D01*
X160194513Y-89105477D01*
X159980184Y-89030691D01*
X159758137Y-88947385D01*
X159531373Y-88856828D01*
X159302893Y-88760287D01*
X159075696Y-88659029D01*
X158852784Y-88554324D01*
X158637157Y-88447437D01*
X158637008Y-88447361D01*
X158592690Y-88424860D01*
X158552965Y-88404866D01*
X158519552Y-88388231D01*
X158494173Y-88375807D01*
X158478552Y-88368446D01*
X158474228Y-88366794D01*
X158480502Y-88372126D01*
X158498436Y-88383235D01*
X158526696Y-88399426D01*
X158563951Y-88420006D01*
X158608868Y-88444281D01*
X158660114Y-88471557D01*
X158716357Y-88501139D01*
X158776263Y-88532335D01*
X158838502Y-88564449D01*
X158901740Y-88596789D01*
X158964644Y-88628659D01*
X159025882Y-88659367D01*
X159084121Y-88688217D01*
X159138029Y-88714516D01*
X159185428Y-88737172D01*
X159466661Y-88865794D01*
X159740321Y-88982766D01*
X160006318Y-89088058D01*
X160264563Y-89181642D01*
X160514964Y-89263488D01*
X160757431Y-89333569D01*
X160991875Y-89391855D01*
X161218205Y-89438316D01*
X161436330Y-89472924D01*
X161502880Y-89481314D01*
X161542841Y-89485253D01*
X161592416Y-89488919D01*
X161649026Y-89492232D01*
X161710088Y-89495111D01*
X161773024Y-89497474D01*
X161835252Y-89499240D01*
X161894192Y-89500328D01*
X161947265Y-89500657D01*
X161991888Y-89500145D01*
X162025483Y-89498712D01*
X162033857Y-89498009D01*
X162128069Y-89487689D01*
X162210282Y-89476765D01*
X162283011Y-89464798D01*
X162348771Y-89451350D01*
X162410076Y-89435980D01*
X162442184Y-89426736D01*
X162562253Y-89384689D01*
X162675103Y-89333284D01*
X162779981Y-89273280D01*
X162876130Y-89205432D01*
X162962795Y-89130497D01*
X163039223Y-89049233D01*
X163104656Y-88962395D01*
X163158341Y-88870742D01*
X163199522Y-88775028D01*
X163227445Y-88676013D01*
X163235302Y-88631825D01*
X163239693Y-88584400D01*
X163240969Y-88527636D01*
X163239341Y-88466321D01*
X163235019Y-88405246D01*
X163228215Y-88349199D01*
X163221221Y-88311622D01*
X163192852Y-88209833D01*
X163153165Y-88102580D01*
X163103213Y-87991995D01*
X163044044Y-87880212D01*
X162976708Y-87769364D01*
X162902256Y-87661584D01*
X162899227Y-87657478D01*
X162857960Y-87601675D01*
X162903551Y-87579231D01*
X162969552Y-87538906D01*
X163028787Y-87486988D01*
X163077275Y-87427895D01*
X162555077Y-87427895D01*
X162526695Y-87423205D01*
X162504354Y-87418584D01*
X162475218Y-87411355D01*
X162451142Y-87404678D01*
X162398735Y-87383136D01*
X162355303Y-87352648D01*
X162322123Y-87314728D01*
X162300473Y-87270888D01*
X162291629Y-87222642D01*
X162291485Y-87215514D01*
X162292161Y-87192794D01*
X162293913Y-87177302D01*
X162295864Y-87172800D01*
X162303109Y-87177672D01*
X162318698Y-87191104D01*
X162340782Y-87211323D01*
X162367513Y-87236555D01*
X162397044Y-87265025D01*
X162427528Y-87294959D01*
X162457116Y-87324583D01*
X162483961Y-87352122D01*
X162497667Y-87366570D01*
X162555077Y-87427895D01*
X163077275Y-87427895D01*
X163079127Y-87425638D01*
X163114580Y-87365146D01*
X163135364Y-87314794D01*
X163148579Y-87265837D01*
X163153419Y-87221877D01*
X163151887Y-87198890D01*
X163139438Y-87159641D01*
X163117263Y-87127937D01*
X163087856Y-87104560D01*
X163053709Y-87090289D01*
X163017317Y-87085904D01*
X162981174Y-87092185D01*
X162947772Y-87109912D01*
X162927951Y-87128839D01*
X162917133Y-87144566D01*
X162902328Y-87169972D01*
X162885513Y-87201502D01*
X162869207Y-87234457D01*
X162840612Y-87289209D01*
X162812223Y-87331672D01*
X162782292Y-87363937D01*
X162749075Y-87388099D01*
X162734548Y-87395928D01*
X162702268Y-87411887D01*
X162651488Y-87355843D01*
X162630742Y-87333427D01*
X162602195Y-87303260D01*
X162568286Y-87267883D01*
X162531450Y-87229835D01*
X162494125Y-87191656D01*
X162485880Y-87183278D01*
X162371053Y-87066755D01*
X162398398Y-87053604D01*
X162418427Y-87044410D01*
X162439153Y-87036022D01*
X162462872Y-87027727D01*
X162491883Y-87018814D01*
X162528481Y-87008571D01*
X162574965Y-86996284D01*
X162623584Y-86983800D01*
X162714281Y-86959270D01*
X162791932Y-86935016D01*
X162857978Y-86910372D01*
X162913855Y-86884674D01*
X162961003Y-86857258D01*
X163000862Y-86827459D01*
X163034868Y-86794613D01*
X163036058Y-86793302D01*
X163076383Y-86738298D01*
X163104812Y-86677046D01*
X163121351Y-86611609D01*
X163126006Y-86544050D01*
X163118780Y-86476430D01*
X163099679Y-86410812D01*
X163068708Y-86349260D01*
X163034876Y-86303743D01*
X162981599Y-86253782D01*
X162917293Y-86212859D01*
X162842408Y-86181133D01*
X162757395Y-86158761D01*
X162662705Y-86145901D01*
X162574514Y-86142568D01*
X162499101Y-86145052D01*
X162433595Y-86152526D01*
X162374058Y-86165632D01*
X162318778Y-86184138D01*
X162261796Y-86209472D01*
X162214288Y-86238387D01*
X162171219Y-86274237D01*
X162147466Y-86298268D01*
X162110157Y-86342629D01*
X162084684Y-86384432D01*
X162069591Y-86426947D01*
X162063418Y-86473441D01*
X162063090Y-86487500D01*
X162063559Y-86518480D01*
X162065951Y-86539840D01*
X162071350Y-86556451D01*
X162080840Y-86573183D01*
X162082851Y-86576257D01*
X162110163Y-86606344D01*
X162143613Y-86626046D01*
X162180305Y-86635144D01*
X162217340Y-86633418D01*
X162251819Y-86620652D01*
X162280845Y-86596626D01*
X162284969Y-86591486D01*
X162297755Y-86572798D01*
X162314004Y-86546662D01*
X162330384Y-86518455D01*
X162331734Y-86516028D01*
X162359013Y-86472789D01*
X162389777Y-86433986D01*
X162421300Y-86402678D01*
X162450855Y-86381923D01*
X162451707Y-86381483D01*
X162493978Y-86366071D01*
X162544998Y-86357104D01*
X162600463Y-86354680D01*
X162656068Y-86358899D01*
X162707509Y-86369858D01*
X162723564Y-86375241D01*
X162765816Y-86396503D01*
X162801653Y-86425152D01*
X162828972Y-86458725D01*
X162845669Y-86494759D01*
X162849967Y-86523286D01*
X162843251Y-86558787D01*
X162824537Y-86593816D01*
X162795975Y-86624659D01*
X162787358Y-86631420D01*
X162763687Y-86646752D01*
X162735236Y-86661128D01*
X162700106Y-86675238D01*
X162656400Y-86689771D01*
X162602219Y-86705414D01*
X162535666Y-86722856D01*
X162534600Y-86723126D01*
X162449811Y-86745389D01*
X162377685Y-86766199D01*
X162316511Y-86786151D01*
X162264584Y-86805843D01*
X162220195Y-86825868D01*
X162184073Y-86845376D01*
X162148092Y-86866592D01*
X162043803Y-86779114D01*
X162000825Y-86743414D01*
X161952094Y-86703502D01*
X161902448Y-86663309D01*
X161856725Y-86626761D01*
X161837937Y-86611938D01*
X161800657Y-86582440D01*
X161772844Y-86559548D01*
X161752387Y-86541110D01*
X161737177Y-86524980D01*
X161725103Y-86509007D01*
X161714056Y-86491043D01*
X161707309Y-86478905D01*
X161656076Y-86398924D01*
X161595062Y-86329454D01*
X161523724Y-86269975D01*
X161441520Y-86219967D01*
X161431514Y-86214884D01*
X161387790Y-86195004D01*
X161341776Y-86177380D01*
X161297133Y-86163165D01*
X161257523Y-86153513D01*
X161226608Y-86149577D01*
X161224138Y-86149543D01*
X161208275Y-86145067D01*
X161181991Y-86131957D01*
X161146163Y-86110687D01*
X161114628Y-86090373D01*
X160759588Y-85862679D01*
X160393286Y-85641340D01*
X160018055Y-85427632D01*
X159636229Y-85222833D01*
X159250142Y-85028217D01*
X158862127Y-84845062D01*
X158720971Y-84781534D01*
X158469879Y-84672500D01*
X158228296Y-84572736D01*
X157994957Y-84481791D01*
X157768596Y-84399213D01*
X157547946Y-84324549D01*
X157331741Y-84257347D01*
X157118716Y-84197155D01*
X156994693Y-84164919D01*
X156957951Y-84155888D01*
X156926513Y-84148566D01*
X156902904Y-84143507D01*
X156889650Y-84141270D01*
X156887721Y-84141345D01*
X156890124Y-84148257D01*
X156897926Y-84167385D01*
X156910669Y-84197665D01*
X156927894Y-84238032D01*
X156949141Y-84287424D01*
X156973954Y-84344775D01*
X157001871Y-84409023D01*
X157032436Y-84479103D01*
X157065188Y-84553951D01*
X157091801Y-84614599D01*
X157125938Y-84692403D01*
X157158255Y-84766252D01*
X157188292Y-84835085D01*
X157215589Y-84897838D01*
X157239685Y-84953448D01*
X157260123Y-85000853D01*
X157276441Y-85038991D01*
X157288180Y-85066797D01*
X157294881Y-85083210D01*
X157296316Y-85087417D01*
X157289881Y-85084117D01*
X157271465Y-85073983D01*
X157241695Y-85057372D01*
X157201199Y-85034638D01*
X157150605Y-85006138D01*
X157090540Y-84972226D01*
X157021631Y-84933258D01*
X156944507Y-84889590D01*
X156859796Y-84841577D01*
X156768124Y-84789574D01*
X156670119Y-84733938D01*
X156566409Y-84675023D01*
X156457622Y-84613186D01*
X156344384Y-84548781D01*
X156227325Y-84482164D01*
X156147955Y-84436974D01*
X156028693Y-84369101D01*
X155912815Y-84303234D01*
X155800950Y-84239729D01*
X155693726Y-84178938D01*
X155591774Y-84121216D01*
X155495721Y-84066918D01*
X155406196Y-84016395D01*
X155323828Y-83970004D01*
X155249247Y-83928097D01*
X155183081Y-83891028D01*
X155125959Y-83859152D01*
X155078509Y-83832823D01*
X155041361Y-83812393D01*
X155015143Y-83798218D01*
X155000485Y-83790651D01*
X154997447Y-83789450D01*
X154994299Y-83797630D01*
X154987862Y-83817757D01*
X154978745Y-83847799D01*
X154967561Y-83885724D01*
X154954920Y-83929499D01*
X154947431Y-83955813D01*
X154932616Y-84007708D01*
X154920990Y-84047127D01*
X154911982Y-84075609D01*
X154905016Y-84094696D01*
X154899518Y-84105929D01*
X154894915Y-84110849D01*
X154890632Y-84110995D01*
X154889763Y-84110587D01*
X154880814Y-84106380D01*
X154859636Y-84096741D01*
X154827115Y-84082063D01*
X154784139Y-84062743D01*
X154731594Y-84039176D01*
X154670367Y-84011756D01*
X154601345Y-83980878D01*
X154525414Y-83946938D01*
X154443462Y-83910331D01*
X154356376Y-83871452D01*
X154265041Y-83830695D01*
X154170346Y-83788457D01*
X154073176Y-83745132D01*
X153974419Y-83701114D01*
X153874961Y-83656800D01*
X153775689Y-83612585D01*
X153677491Y-83568862D01*
X153581252Y-83526028D01*
X153487860Y-83484478D01*
X153398201Y-83444606D01*
X153313163Y-83406807D01*
X153233632Y-83371478D01*
X153160495Y-83339012D01*
X153094638Y-83309805D01*
X153036949Y-83284252D01*
X152988314Y-83262748D01*
X152949621Y-83245689D01*
X152921756Y-83233468D01*
X152905605Y-83226482D01*
X152901720Y-83224914D01*
X152899729Y-83231807D01*
G37*
X152899729Y-83231807D02*
X152897207Y-83251067D01*
X152894353Y-83280566D01*
X152891367Y-83318173D01*
X152888447Y-83361761D01*
X152887625Y-83375500D01*
X152869787Y-83594788D01*
X152842168Y-83811127D01*
X152805096Y-84023467D01*
X152758899Y-84230755D01*
X152703905Y-84431939D01*
X152640442Y-84625968D01*
X152568838Y-84811789D01*
X152489421Y-84988351D01*
X152402519Y-85154602D01*
X152308459Y-85309490D01*
X152264250Y-85374683D01*
X152164213Y-85506497D01*
X152055765Y-85629369D01*
X151939994Y-85742382D01*
X151817988Y-85844620D01*
X151690836Y-85935167D01*
X151559625Y-86013106D01*
X151433984Y-86073870D01*
X151382877Y-86095716D01*
X151341950Y-86112414D01*
X151308112Y-86124692D01*
X151278272Y-86133279D01*
X151249338Y-86138901D01*
X151218219Y-86142289D01*
X151181823Y-86144168D01*
X151137060Y-86145268D01*
X151130293Y-86145395D01*
X151068056Y-86147347D01*
X151016837Y-86151118D01*
X150973183Y-86157400D01*
X150933643Y-86166885D01*
X150894762Y-86180266D01*
X150853089Y-86198236D01*
X150842805Y-86203063D01*
X150778358Y-86237023D01*
X150723173Y-86274085D01*
X150672006Y-86317922D01*
X150654657Y-86334960D01*
X150630931Y-86358093D01*
X150610060Y-86375680D01*
X150588043Y-86390353D01*
X150560881Y-86404745D01*
X150524573Y-86421489D01*
X150520400Y-86423344D01*
X150479423Y-86441665D01*
X150434754Y-86461876D01*
X150392645Y-86481137D01*
X150367513Y-86492780D01*
X150298084Y-86525206D01*
X150289910Y-86477487D01*
X150271361Y-86410963D01*
X150239852Y-86349988D01*
X150196096Y-86295237D01*
X150140805Y-86247386D01*
X150074689Y-86207110D01*
X149998461Y-86175084D01*
X149957971Y-86162699D01*
X149935541Y-86157078D01*
X149913679Y-86152930D01*
X149889579Y-86150030D01*
X149860433Y-86148154D01*
X149823434Y-86147080D01*
X149775775Y-86146583D01*
X149754771Y-86146500D01*
X149701255Y-86146581D01*
X149659669Y-86147281D01*
X149627439Y-86148772D01*
X149601986Y-86151225D01*
X149580737Y-86154813D01*
X149562457Y-86159327D01*
X149484237Y-86186572D01*
X149414699Y-86221536D01*
X149354800Y-86263311D01*
X149305500Y-86310989D01*
X149267756Y-86363661D01*
X149242525Y-86420420D01*
X149231409Y-86473269D01*
X149229732Y-86502723D01*
X149232731Y-86525340D01*
X149241393Y-86548318D01*
X149241817Y-86549230D01*
X149256151Y-86577262D01*
X149269983Y-86596325D01*
X149287348Y-86611237D01*
X149301328Y-86620311D01*
X149333295Y-86632598D01*
X149369835Y-86635689D01*
X149404900Y-86629525D01*
X149422514Y-86621484D01*
X149440560Y-86606429D01*
X149461457Y-86581128D01*
X149486001Y-86544494D01*
X149514991Y-86495440D01*
X149515600Y-86494363D01*
X149548535Y-86445994D01*
X149586711Y-86406933D01*
X149627801Y-86379423D01*
X149641249Y-86373401D01*
X149678805Y-86363223D01*
X149725196Y-86357440D01*
X149775498Y-86356059D01*
X149824790Y-86359084D01*
X149868150Y-86366520D01*
X149889375Y-86373143D01*
X149940887Y-86398646D01*
X149979653Y-86429433D01*
X150005320Y-86465057D01*
X150017536Y-86505072D01*
X150017919Y-86535187D01*
X150011383Y-86566932D01*
X149996990Y-86593886D01*
X149972365Y-86619798D01*
X149955717Y-86633348D01*
X149939079Y-86644995D01*
X149920078Y-86655707D01*
X149896894Y-86666130D01*
X149867709Y-86676909D01*
X149830702Y-86688691D01*
X149784056Y-86702121D01*
X149725949Y-86717844D01*
X149693677Y-86726336D01*
X149624223Y-86744846D01*
X149566597Y-86761086D01*
X149518442Y-86775859D01*
X149477403Y-86789968D01*
X149441121Y-86804216D01*
X149407241Y-86819404D01*
X149378517Y-86833682D01*
X149312087Y-86874942D01*
X149257757Y-86923768D01*
X149215775Y-86979881D01*
X149186390Y-87043003D01*
X149183652Y-87051256D01*
X149175327Y-87088412D01*
X149170100Y-87134644D01*
X149168114Y-87184820D01*
X149169513Y-87233806D01*
X149174440Y-87276469D01*
X149177014Y-87288914D01*
X149195309Y-87343999D01*
X149222956Y-87400486D01*
X149256794Y-87452429D01*
X149277034Y-87477054D01*
X149317066Y-87521291D01*
X149300061Y-87602859D01*
X149294586Y-87630478D01*
X149290421Y-87655738D01*
X149287395Y-87681289D01*
X149285335Y-87709781D01*
X149284070Y-87743864D01*
X149283428Y-87786186D01*
X149283238Y-87839396D01*
X149283247Y-87862228D01*
X149283501Y-87922611D01*
X149284239Y-87971385D01*
X149285635Y-88011454D01*
X149287865Y-88045718D01*
X149291107Y-88077081D01*
X149295535Y-88108445D01*
X149299697Y-88133464D01*
X149334146Y-88297524D01*
X149381403Y-88467210D01*
X149393251Y-88504486D01*
X149405130Y-88539983D01*
X149419201Y-88580267D01*
X149434671Y-88623263D01*
X149450749Y-88666892D01*
X149466646Y-88709078D01*
X149481571Y-88747744D01*
X149494732Y-88780813D01*
X149505340Y-88806208D01*
X149512602Y-88821852D01*
X149515616Y-88825888D01*
X149514101Y-88818579D01*
X149508269Y-88800039D01*
X149498913Y-88772619D01*
X149486827Y-88738671D01*
X149478291Y-88715320D01*
X149434751Y-88588763D01*
X149395701Y-88458018D01*
X149362272Y-88327388D01*
X149335593Y-88201176D01*
X149321852Y-88119857D01*
X149318150Y-88085699D01*
X149315265Y-88039275D01*
X149313289Y-87982813D01*
X149312315Y-87918543D01*
X149312228Y-87887628D01*
X149312736Y-87820221D01*
X149314335Y-87764363D01*
X149317328Y-87717113D01*
X149322018Y-87675527D01*
X149328709Y-87636661D01*
X149337703Y-87597574D01*
X149344817Y-87571046D01*
X149352175Y-87544749D01*
X149415587Y-87576650D01*
X149462750Y-87598615D01*
X149507505Y-87615179D01*
X149553387Y-87627118D01*
X149603932Y-87635212D01*
X149662675Y-87640236D01*
X149714857Y-87642477D01*
X149770571Y-87643601D01*
X149815607Y-87643096D01*
X149853724Y-87640800D01*
X149888685Y-87636549D01*
X149902149Y-87634348D01*
X149991881Y-87612445D01*
X150072327Y-87579658D01*
X150143233Y-87536170D01*
X150204342Y-87482165D01*
X150255399Y-87417825D01*
X150289867Y-87356896D01*
X150311582Y-87301947D01*
X150322848Y-87250361D01*
X150323458Y-87204053D01*
X150313204Y-87164938D01*
X150311076Y-87160508D01*
X150285237Y-87124505D01*
X150251147Y-87099956D01*
X150210561Y-87087801D01*
X150174871Y-87087599D01*
X150150949Y-87092245D01*
X150130380Y-87101459D01*
X150111531Y-87116994D01*
X150092769Y-87140604D01*
X150072460Y-87174044D01*
X150048972Y-87219067D01*
X150045023Y-87227030D01*
X150023679Y-87269140D01*
X150006159Y-87300636D01*
X149990671Y-87324290D01*
X149975419Y-87342870D01*
X149960672Y-87357313D01*
X149916726Y-87389090D01*
X149866205Y-87410538D01*
X149806902Y-87422481D01*
X149780171Y-87424786D01*
X149705314Y-87423691D01*
X149638367Y-87411295D01*
X149579900Y-87387790D01*
X149530482Y-87353364D01*
X149512327Y-87335437D01*
X149494242Y-87314202D01*
X149480287Y-87295137D01*
X149473442Y-87282317D01*
X149473407Y-87282188D01*
X149475674Y-87267939D01*
X149486340Y-87245121D01*
X149503928Y-87215801D01*
X149526960Y-87182043D01*
X149553958Y-87145913D01*
X149583444Y-87109479D01*
X149613940Y-87074805D01*
X149643480Y-87044429D01*
X149655890Y-87032963D01*
X149667812Y-87023988D01*
X149681835Y-87016462D01*
X149700549Y-87009344D01*
X149726544Y-87001590D01*
X149762410Y-86992159D01*
X149791670Y-86984778D01*
X149875787Y-86962649D01*
X149947265Y-86941356D01*
X150007885Y-86920102D01*
X150059429Y-86898088D01*
X150103680Y-86874519D01*
X150142418Y-86848594D01*
X150177427Y-86819518D01*
X150192063Y-86805566D01*
X150233883Y-86758680D01*
X150263298Y-86712268D01*
X150282005Y-86663377D01*
X150287356Y-86639921D01*
X150292372Y-86618396D01*
X150297768Y-86603026D01*
X150300052Y-86599381D01*
X150308454Y-86594513D01*
X150327251Y-86585268D01*
X150353954Y-86572752D01*
X150386070Y-86558072D01*
X150421110Y-86542334D01*
X150456582Y-86526644D01*
X150489995Y-86512109D01*
X150518858Y-86499835D01*
X150540680Y-86490928D01*
X150552971Y-86486495D01*
X150554740Y-86486264D01*
X150554155Y-86493919D01*
X150549631Y-86508237D01*
X150544461Y-86531581D01*
X150542389Y-86562346D01*
X150543284Y-86594987D01*
X150547015Y-86623960D01*
X150552796Y-86642524D01*
X150576886Y-86674390D01*
X150609820Y-86697496D01*
X150647931Y-86710113D01*
X150687553Y-86710511D01*
X150694226Y-86709228D01*
X150715745Y-86703371D01*
X150733790Y-86695266D01*
X150750142Y-86683041D01*
X150766585Y-86664820D01*
X150784903Y-86638729D01*
X150806881Y-86602894D01*
X150824873Y-86571918D01*
X150868316Y-86507948D01*
X150917795Y-86456633D01*
X150972907Y-86418310D01*
X151033250Y-86393317D01*
X151039285Y-86391636D01*
X151070927Y-86386066D01*
X151111324Y-86382971D01*
X151154922Y-86382416D01*
X151196164Y-86384464D01*
X151229494Y-86389176D01*
X151230788Y-86389468D01*
X151293706Y-86411260D01*
X151350942Y-86445898D01*
X151401782Y-86492593D01*
X151445511Y-86550553D01*
X151481417Y-86618986D01*
X151508784Y-86697103D01*
X151508882Y-86697457D01*
X151514390Y-86718894D01*
X151518483Y-86739426D01*
X151521363Y-86761724D01*
X151523230Y-86788460D01*
X151524289Y-86822305D01*
X151524741Y-86865932D01*
X151524802Y-86907914D01*
X151524681Y-86959382D01*
X151524226Y-86999022D01*
X151523190Y-87029517D01*
X151521322Y-87053555D01*
X151518377Y-87073818D01*
X151514105Y-87092994D01*
X151508259Y-87113766D01*
X151504706Y-87125469D01*
X151484247Y-87184012D01*
X151461520Y-87231910D01*
X151434494Y-87273032D01*
X151414861Y-87296630D01*
X151364351Y-87342614D01*
X151306536Y-87376211D01*
X151241180Y-87397518D01*
X151168051Y-87406632D01*
X151151771Y-87407006D01*
X151075903Y-87401748D01*
X151008443Y-87384774D01*
X150949117Y-87355893D01*
X150897653Y-87314913D01*
X150853776Y-87261643D01*
X150817213Y-87195890D01*
X150803312Y-87162800D01*
X150783478Y-87115699D01*
X150764345Y-87081194D01*
X150744128Y-87057582D01*
X150721039Y-87043161D01*
X150693291Y-87036227D01*
X150669148Y-87034914D01*
X150623408Y-87040631D01*
X150586773Y-87057305D01*
X150559720Y-87084226D01*
X150542724Y-87120679D01*
X150536261Y-87165954D01*
X150540807Y-87219336D01*
X150541928Y-87225305D01*
X150563517Y-87298423D01*
X150598124Y-87368156D01*
X150644395Y-87433140D01*
X150700975Y-87492012D01*
X150766510Y-87543408D01*
X150839644Y-87585964D01*
X150919023Y-87618317D01*
X150938180Y-87624217D01*
X150959262Y-87629962D01*
X150978964Y-87634209D01*
X150999986Y-87637169D01*
X151025029Y-87639054D01*
X151056792Y-87640076D01*
X151097975Y-87640446D01*
X151144514Y-87640400D01*
X151209368Y-87639587D01*
X151262778Y-87637217D01*
X151307783Y-87632694D01*
X151347423Y-87625424D01*
X151384735Y-87614812D01*
X151422760Y-87600260D01*
X151464535Y-87581176D01*
X151476441Y-87575370D01*
X151547428Y-87532570D01*
X151612860Y-87477404D01*
X151671727Y-87411293D01*
X151723016Y-87335656D01*
X151765716Y-87251914D01*
X151798814Y-87161487D01*
X151814414Y-87101114D01*
X151822007Y-87054740D01*
X151827287Y-86998466D01*
X151830227Y-86936239D01*
X151830802Y-86872004D01*
X151828986Y-86809707D01*
X151824755Y-86753293D01*
X151818082Y-86706707D01*
X151817002Y-86701430D01*
X151788570Y-86598385D01*
X151749490Y-86504728D01*
X151699991Y-86420764D01*
X151640302Y-86346799D01*
X151570652Y-86283137D01*
X151491271Y-86230083D01*
X151444802Y-86206121D01*
X151422180Y-86195173D01*
X151406182Y-86186732D01*
X151399925Y-86182453D01*
X151399970Y-86182303D01*
X151407065Y-86178896D01*
X151424928Y-86170873D01*
X151451001Y-86159367D01*
X151482727Y-86145515D01*
X151488749Y-86142900D01*
X151635289Y-86071434D01*
X151775797Y-85986961D01*
X151910064Y-85889773D01*
X152037879Y-85780157D01*
X152159032Y-85658404D01*
X152273311Y-85524804D01*
X152380507Y-85379645D01*
X152480410Y-85223219D01*
X152572808Y-85055814D01*
X152657491Y-84877720D01*
X152734249Y-84689228D01*
X152802872Y-84490626D01*
X152863149Y-84282204D01*
X152875622Y-84233657D01*
X152925534Y-84013676D01*
X152965757Y-83790861D01*
X152995363Y-83570469D01*
X152999301Y-83533343D01*
X153003440Y-83493976D01*
X153007260Y-83459992D01*
X153010462Y-83433875D01*
X153012748Y-83418111D01*
X153013598Y-83414597D01*
X153020369Y-83417245D01*
X153039621Y-83425582D01*
X153070626Y-83439282D01*
X153112659Y-83458015D01*
X153164992Y-83481455D01*
X153226898Y-83509273D01*
X153297649Y-83541142D01*
X153376519Y-83576733D01*
X153462781Y-83615719D01*
X153555708Y-83657772D01*
X153654572Y-83702564D01*
X153758647Y-83749768D01*
X153867206Y-83799055D01*
X153979521Y-83850097D01*
X153999314Y-83859097D01*
X154112277Y-83910449D01*
X154221651Y-83960135D01*
X154326704Y-84007823D01*
X154426706Y-84053184D01*
X154520926Y-84095887D01*
X154608634Y-84135602D01*
X154689099Y-84171999D01*
X154761591Y-84204748D01*
X154825379Y-84233518D01*
X154879733Y-84257980D01*
X154923921Y-84277802D01*
X154957215Y-84292655D01*
X154978882Y-84302209D01*
X154988192Y-84306133D01*
X154988492Y-84306217D01*
X154992180Y-84299566D01*
X154999119Y-84280982D01*
X155008636Y-84252504D01*
X155020056Y-84216172D01*
X155032707Y-84174025D01*
X155037016Y-84159259D01*
X155049962Y-84115195D01*
X155061861Y-84075828D01*
X155072036Y-84043311D01*
X155079809Y-84019793D01*
X155084501Y-84007429D01*
X155085218Y-84006204D01*
X155091974Y-84009150D01*
X155110715Y-84018991D01*
X155140842Y-84035387D01*
X155181758Y-84057999D01*
X155232864Y-84086490D01*
X155293561Y-84120520D01*
X155363251Y-84159750D01*
X155441335Y-84203843D01*
X155527215Y-84252460D01*
X155620291Y-84305261D01*
X155719967Y-84361909D01*
X155825642Y-84422065D01*
X155936718Y-84485389D01*
X156052598Y-84551545D01*
X156172682Y-84620192D01*
X156296371Y-84690992D01*
X156351951Y-84722836D01*
X156477021Y-84794490D01*
X156598726Y-84864171D01*
X156716466Y-84931538D01*
X156829646Y-84996251D01*
X156937668Y-85057971D01*
X157039935Y-85116356D01*
X157135849Y-85171068D01*
X157224814Y-85221766D01*
X157306232Y-85268109D01*
X157379506Y-85309759D01*
X157444039Y-85346374D01*
X157499233Y-85377616D01*
X157544492Y-85403143D01*
X157579218Y-85422616D01*
X157602815Y-85435695D01*
X157614684Y-85442039D01*
X157616038Y-85442609D01*
X157613656Y-85435663D01*
X157605856Y-85416429D01*
X157593069Y-85385900D01*
X157575722Y-85345073D01*
X157554243Y-85294945D01*
X157529061Y-85236510D01*
X157500606Y-85170764D01*
X157469304Y-85098703D01*
X157435585Y-85021324D01*
X157399877Y-84939621D01*
X157383386Y-84901963D01*
X157346978Y-84818740D01*
X157312413Y-84739458D01*
X157280117Y-84665104D01*
X157250511Y-84596667D01*
X157224021Y-84535135D01*
X157201069Y-84481496D01*
X157182079Y-84436739D01*
X157167474Y-84401852D01*
X157157680Y-84377822D01*
X157153118Y-84365640D01*
X157152889Y-84364286D01*
X157165888Y-84366543D01*
X157190985Y-84372968D01*
X157226542Y-84383040D01*
X157270920Y-84396240D01*
X157322483Y-84412047D01*
X157379591Y-84429942D01*
X157440606Y-84449403D01*
X157503890Y-84469912D01*
X157567805Y-84490948D01*
X157630713Y-84511990D01*
X157690976Y-84532519D01*
X157746954Y-84552015D01*
X157770285Y-84560303D01*
X157967432Y-84632539D01*
X158161456Y-84707165D01*
X158354452Y-84785088D01*
X158548515Y-84867214D01*
X158745739Y-84954452D01*
X158948219Y-85047707D01*
X159158048Y-85147887D01*
X159377322Y-85255899D01*
X159381371Y-85257922D01*
X159594830Y-85365976D01*
X159797052Y-85471289D01*
X159990688Y-85575339D01*
X160178389Y-85679604D01*
X160362806Y-85785561D01*
X160546588Y-85894690D01*
X160732388Y-86008469D01*
X160776217Y-86035783D01*
X160962748Y-86152396D01*
X160904794Y-86169128D01*
X160825176Y-86198047D01*
X160750918Y-86236666D01*
X160683657Y-86283579D01*
X160625033Y-86337381D01*
X160576682Y-86396668D01*
X160540242Y-86460034D01*
X160526831Y-86493300D01*
X160518510Y-86526963D01*
X160514464Y-86564321D01*
X160514783Y-86600454D01*
X160519558Y-86630442D01*
X160524110Y-86642524D01*
X160548474Y-86674743D01*
X160581737Y-86697861D01*
X160620336Y-86710217D01*
X160660711Y-86710151D01*
X160666630Y-86708983D01*
X160692647Y-86700986D01*
X160714247Y-86688443D01*
X160734194Y-86668885D01*
X160755255Y-86639839D01*
X160769405Y-86617112D01*
X160807849Y-86556138D01*
X160843108Y-86507242D01*
X160876840Y-86468817D01*
X160910704Y-86439257D01*
X160946360Y-86416959D01*
X160985466Y-86400316D01*
X160997543Y-86396363D01*
X161046553Y-86385913D01*
X161102136Y-86381606D01*
X161158380Y-86383464D01*
X161209370Y-86391508D01*
X161224025Y-86395520D01*
X161287221Y-86422564D01*
X161343184Y-86461719D01*
X161391456Y-86512259D01*
X161431578Y-86573458D01*
X161463091Y-86644591D01*
X161485536Y-86724930D01*
X161498453Y-86813750D01*
X161499804Y-86831714D01*
X161502006Y-86935639D01*
X161494782Y-87030181D01*
X161478359Y-87114996D01*
X161452967Y-87189739D01*
X161418833Y-87254065D01*
X161376183Y-87307628D01*
X161325248Y-87350086D01*
X161266253Y-87381092D01*
X161199428Y-87400302D01*
X161124999Y-87407370D01*
X161119457Y-87407401D01*
X161044356Y-87401449D01*
X160977327Y-87383516D01*
X160918210Y-87353488D01*
X160866844Y-87311248D01*
X160823067Y-87256683D01*
X160786719Y-87189677D01*
X160775104Y-87161666D01*
X160755251Y-87114719D01*
X160735932Y-87080390D01*
X160715329Y-87056974D01*
X160691626Y-87042765D01*
X160663004Y-87036059D01*
X160640003Y-87034914D01*
X160594902Y-87040830D01*
X160558170Y-87058427D01*
X160530191Y-87087484D01*
X160520447Y-87104468D01*
X160511298Y-87126502D01*
X160507254Y-87147260D01*
X160507351Y-87173231D01*
X160508306Y-87186213D01*
X160521481Y-87258397D01*
X160547924Y-87328325D01*
X160586421Y-87394675D01*
X160635757Y-87456122D01*
X160694716Y-87511341D01*
X160762084Y-87559008D01*
X160836644Y-87597799D01*
X160910457Y-87624481D01*
X160931291Y-87630144D01*
X160950933Y-87634328D01*
X160972070Y-87637242D01*
X160997391Y-87639094D01*
X161029586Y-87640094D01*
X161071343Y-87640448D01*
X161115828Y-87640400D01*
X161180817Y-87639579D01*
X161234343Y-87637192D01*
X161279425Y-87632650D01*
X161319081Y-87625368D01*
X161356331Y-87614757D01*
X161394193Y-87600229D01*
X161435686Y-87581198D01*
X161446028Y-87576138D01*
X161522421Y-87530413D01*
X161591004Y-87472680D01*
X161651373Y-87403413D01*
X161703125Y-87323086D01*
X161745856Y-87232173D01*
X161751637Y-87217187D01*
X161768462Y-87169458D01*
X161781201Y-87125523D01*
X161790363Y-87082031D01*
X161796459Y-87035634D01*
X161799997Y-86982982D01*
X161801489Y-86920727D01*
X161801628Y-86888798D01*
X161801628Y-86746310D01*
X161834285Y-86773034D01*
X161851162Y-86786833D01*
X161876518Y-86807555D01*
X161907593Y-86832942D01*
X161941623Y-86860737D01*
X161962295Y-86877618D01*
X162057647Y-86955480D01*
X162036406Y-86994697D01*
X162012433Y-87052976D01*
X161998559Y-87119122D01*
X161995096Y-87190289D01*
X162002353Y-87263629D01*
X162005389Y-87279630D01*
X162027684Y-87352635D01*
X162062784Y-87419543D01*
X162109977Y-87479538D01*
X162168551Y-87531802D01*
X162237792Y-87575520D01*
X162282201Y-87596489D01*
X162308741Y-87606035D01*
X162343875Y-87616465D01*
X162381902Y-87626154D01*
X162401100Y-87630395D01*
X162430847Y-87636160D01*
X162457573Y-87640176D01*
X162484702Y-87642644D01*
X162515655Y-87643766D01*
X162553856Y-87643740D01*
X162602728Y-87642769D01*
X162609348Y-87642602D01*
X162742153Y-87639194D01*
X162787571Y-87698097D01*
X162879081Y-87824124D01*
X162956870Y-87947187D01*
X163021276Y-88067929D01*
X163072636Y-88186993D01*
X163111289Y-88305021D01*
X163116111Y-88323057D01*
X163124066Y-88355048D01*
X163129691Y-88382219D01*
X163133380Y-88408385D01*
X163135530Y-88437360D01*
X163136534Y-88472955D01*
X163136787Y-88518986D01*
X163136787Y-88522628D01*
X163136505Y-88570348D01*
X163135476Y-88606933D01*
X163133384Y-88635757D01*
X163129915Y-88660195D01*
X163124754Y-88683619D01*
X163120192Y-88700428D01*
X163085702Y-88795065D01*
X163037210Y-88886669D01*
X162974995Y-88974792D01*
X162899337Y-89058984D01*
X162892418Y-89065824D01*
X162805394Y-89142555D01*
X162710623Y-89209505D01*
X162607291Y-89267044D01*
X162494589Y-89315539D01*
X162371703Y-89355359D01*
X162237822Y-89386872D01*
X162152125Y-89401908D01*
X162099656Y-89408304D01*
X162035543Y-89413291D01*
X161962587Y-89416851D01*
X161883592Y-89418970D01*
X161801359Y-89419633D01*
X161718691Y-89418823D01*
X161638391Y-89416527D01*
X161563261Y-89412727D01*
X161496104Y-89407410D01*
X161478685Y-89405600D01*
X161270621Y-89377761D01*
X161055559Y-89339411D01*
X160832991Y-89290431D01*
X160602405Y-89230702D01*
X160363292Y-89160104D01*
X160194513Y-89105477D01*
X159980184Y-89030691D01*
X159758137Y-88947385D01*
X159531373Y-88856828D01*
X159302893Y-88760287D01*
X159075696Y-88659029D01*
X158852784Y-88554324D01*
X158637157Y-88447437D01*
X158637008Y-88447361D01*
X158592690Y-88424860D01*
X158552965Y-88404866D01*
X158519552Y-88388231D01*
X158494173Y-88375807D01*
X158478552Y-88368446D01*
X158474228Y-88366794D01*
X158480502Y-88372126D01*
X158498436Y-88383235D01*
X158526696Y-88399426D01*
X158563951Y-88420006D01*
X158608868Y-88444281D01*
X158660114Y-88471557D01*
X158716357Y-88501139D01*
X158776263Y-88532335D01*
X158838502Y-88564449D01*
X158901740Y-88596789D01*
X158964644Y-88628659D01*
X159025882Y-88659367D01*
X159084121Y-88688217D01*
X159138029Y-88714516D01*
X159185428Y-88737172D01*
X159466661Y-88865794D01*
X159740321Y-88982766D01*
X160006318Y-89088058D01*
X160264563Y-89181642D01*
X160514964Y-89263488D01*
X160757431Y-89333569D01*
X160991875Y-89391855D01*
X161218205Y-89438316D01*
X161436330Y-89472924D01*
X161502880Y-89481314D01*
X161542841Y-89485253D01*
X161592416Y-89488919D01*
X161649026Y-89492232D01*
X161710088Y-89495111D01*
X161773024Y-89497474D01*
X161835252Y-89499240D01*
X161894192Y-89500328D01*
X161947265Y-89500657D01*
X161991888Y-89500145D01*
X162025483Y-89498712D01*
X162033857Y-89498009D01*
X162128069Y-89487689D01*
X162210282Y-89476765D01*
X162283011Y-89464798D01*
X162348771Y-89451350D01*
X162410076Y-89435980D01*
X162442184Y-89426736D01*
X162562253Y-89384689D01*
X162675103Y-89333284D01*
X162779981Y-89273280D01*
X162876130Y-89205432D01*
X162962795Y-89130497D01*
X163039223Y-89049233D01*
X163104656Y-88962395D01*
X163158341Y-88870742D01*
X163199522Y-88775028D01*
X163227445Y-88676013D01*
X163235302Y-88631825D01*
X163239693Y-88584400D01*
X163240969Y-88527636D01*
X163239341Y-88466321D01*
X163235019Y-88405246D01*
X163228215Y-88349199D01*
X163221221Y-88311622D01*
X163192852Y-88209833D01*
X163153165Y-88102580D01*
X163103213Y-87991995D01*
X163044044Y-87880212D01*
X162976708Y-87769364D01*
X162902256Y-87661584D01*
X162899227Y-87657478D01*
X162857960Y-87601675D01*
X162903551Y-87579231D01*
X162969552Y-87538906D01*
X163028787Y-87486988D01*
X163077275Y-87427895D01*
X162555077Y-87427895D01*
X162526695Y-87423205D01*
X162504354Y-87418584D01*
X162475218Y-87411355D01*
X162451142Y-87404678D01*
X162398735Y-87383136D01*
X162355303Y-87352648D01*
X162322123Y-87314728D01*
X162300473Y-87270888D01*
X162291629Y-87222642D01*
X162291485Y-87215514D01*
X162292161Y-87192794D01*
X162293913Y-87177302D01*
X162295864Y-87172800D01*
X162303109Y-87177672D01*
X162318698Y-87191104D01*
X162340782Y-87211323D01*
X162367513Y-87236555D01*
X162397044Y-87265025D01*
X162427528Y-87294959D01*
X162457116Y-87324583D01*
X162483961Y-87352122D01*
X162497667Y-87366570D01*
X162555077Y-87427895D01*
X163077275Y-87427895D01*
X163079127Y-87425638D01*
X163114580Y-87365146D01*
X163135364Y-87314794D01*
X163148579Y-87265837D01*
X163153419Y-87221877D01*
X163151887Y-87198890D01*
X163139438Y-87159641D01*
X163117263Y-87127937D01*
X163087856Y-87104560D01*
X163053709Y-87090289D01*
X163017317Y-87085904D01*
X162981174Y-87092185D01*
X162947772Y-87109912D01*
X162927951Y-87128839D01*
X162917133Y-87144566D01*
X162902328Y-87169972D01*
X162885513Y-87201502D01*
X162869207Y-87234457D01*
X162840612Y-87289209D01*
X162812223Y-87331672D01*
X162782292Y-87363937D01*
X162749075Y-87388099D01*
X162734548Y-87395928D01*
X162702268Y-87411887D01*
X162651488Y-87355843D01*
X162630742Y-87333427D01*
X162602195Y-87303260D01*
X162568286Y-87267883D01*
X162531450Y-87229835D01*
X162494125Y-87191656D01*
X162485880Y-87183278D01*
X162371053Y-87066755D01*
X162398398Y-87053604D01*
X162418427Y-87044410D01*
X162439153Y-87036022D01*
X162462872Y-87027727D01*
X162491883Y-87018814D01*
X162528481Y-87008571D01*
X162574965Y-86996284D01*
X162623584Y-86983800D01*
X162714281Y-86959270D01*
X162791932Y-86935016D01*
X162857978Y-86910372D01*
X162913855Y-86884674D01*
X162961003Y-86857258D01*
X163000862Y-86827459D01*
X163034868Y-86794613D01*
X163036058Y-86793302D01*
X163076383Y-86738298D01*
X163104812Y-86677046D01*
X163121351Y-86611609D01*
X163126006Y-86544050D01*
X163118780Y-86476430D01*
X163099679Y-86410812D01*
X163068708Y-86349260D01*
X163034876Y-86303743D01*
X162981599Y-86253782D01*
X162917293Y-86212859D01*
X162842408Y-86181133D01*
X162757395Y-86158761D01*
X162662705Y-86145901D01*
X162574514Y-86142568D01*
X162499101Y-86145052D01*
X162433595Y-86152526D01*
X162374058Y-86165632D01*
X162318778Y-86184138D01*
X162261796Y-86209472D01*
X162214288Y-86238387D01*
X162171219Y-86274237D01*
X162147466Y-86298268D01*
X162110157Y-86342629D01*
X162084684Y-86384432D01*
X162069591Y-86426947D01*
X162063418Y-86473441D01*
X162063090Y-86487500D01*
X162063559Y-86518480D01*
X162065951Y-86539840D01*
X162071350Y-86556451D01*
X162080840Y-86573183D01*
X162082851Y-86576257D01*
X162110163Y-86606344D01*
X162143613Y-86626046D01*
X162180305Y-86635144D01*
X162217340Y-86633418D01*
X162251819Y-86620652D01*
X162280845Y-86596626D01*
X162284969Y-86591486D01*
X162297755Y-86572798D01*
X162314004Y-86546662D01*
X162330384Y-86518455D01*
X162331734Y-86516028D01*
X162359013Y-86472789D01*
X162389777Y-86433986D01*
X162421300Y-86402678D01*
X162450855Y-86381923D01*
X162451707Y-86381483D01*
X162493978Y-86366071D01*
X162544998Y-86357104D01*
X162600463Y-86354680D01*
X162656068Y-86358899D01*
X162707509Y-86369858D01*
X162723564Y-86375241D01*
X162765816Y-86396503D01*
X162801653Y-86425152D01*
X162828972Y-86458725D01*
X162845669Y-86494759D01*
X162849967Y-86523286D01*
X162843251Y-86558787D01*
X162824537Y-86593816D01*
X162795975Y-86624659D01*
X162787358Y-86631420D01*
X162763687Y-86646752D01*
X162735236Y-86661128D01*
X162700106Y-86675238D01*
X162656400Y-86689771D01*
X162602219Y-86705414D01*
X162535666Y-86722856D01*
X162534600Y-86723126D01*
X162449811Y-86745389D01*
X162377685Y-86766199D01*
X162316511Y-86786151D01*
X162264584Y-86805843D01*
X162220195Y-86825868D01*
X162184073Y-86845376D01*
X162148092Y-86866592D01*
X162043803Y-86779114D01*
X162000825Y-86743414D01*
X161952094Y-86703502D01*
X161902448Y-86663309D01*
X161856725Y-86626761D01*
X161837937Y-86611938D01*
X161800657Y-86582440D01*
X161772844Y-86559548D01*
X161752387Y-86541110D01*
X161737177Y-86524980D01*
X161725103Y-86509007D01*
X161714056Y-86491043D01*
X161707309Y-86478905D01*
X161656076Y-86398924D01*
X161595062Y-86329454D01*
X161523724Y-86269975D01*
X161441520Y-86219967D01*
X161431514Y-86214884D01*
X161387790Y-86195004D01*
X161341776Y-86177380D01*
X161297133Y-86163165D01*
X161257523Y-86153513D01*
X161226608Y-86149577D01*
X161224138Y-86149543D01*
X161208275Y-86145067D01*
X161181991Y-86131957D01*
X161146163Y-86110687D01*
X161114628Y-86090373D01*
X160759588Y-85862679D01*
X160393286Y-85641340D01*
X160018055Y-85427632D01*
X159636229Y-85222833D01*
X159250142Y-85028217D01*
X158862127Y-84845062D01*
X158720971Y-84781534D01*
X158469879Y-84672500D01*
X158228296Y-84572736D01*
X157994957Y-84481791D01*
X157768596Y-84399213D01*
X157547946Y-84324549D01*
X157331741Y-84257347D01*
X157118716Y-84197155D01*
X156994693Y-84164919D01*
X156957951Y-84155888D01*
X156926513Y-84148566D01*
X156902904Y-84143507D01*
X156889650Y-84141270D01*
X156887721Y-84141345D01*
X156890124Y-84148257D01*
X156897926Y-84167385D01*
X156910669Y-84197665D01*
X156927894Y-84238032D01*
X156949141Y-84287424D01*
X156973954Y-84344775D01*
X157001871Y-84409023D01*
X157032436Y-84479103D01*
X157065188Y-84553951D01*
X157091801Y-84614599D01*
X157125938Y-84692403D01*
X157158255Y-84766252D01*
X157188292Y-84835085D01*
X157215589Y-84897838D01*
X157239685Y-84953448D01*
X157260123Y-85000853D01*
X157276441Y-85038991D01*
X157288180Y-85066797D01*
X157294881Y-85083210D01*
X157296316Y-85087417D01*
X157289881Y-85084117D01*
X157271465Y-85073983D01*
X157241695Y-85057372D01*
X157201199Y-85034638D01*
X157150605Y-85006138D01*
X157090540Y-84972226D01*
X157021631Y-84933258D01*
X156944507Y-84889590D01*
X156859796Y-84841577D01*
X156768124Y-84789574D01*
X156670119Y-84733938D01*
X156566409Y-84675023D01*
X156457622Y-84613186D01*
X156344384Y-84548781D01*
X156227325Y-84482164D01*
X156147955Y-84436974D01*
X156028693Y-84369101D01*
X155912815Y-84303234D01*
X155800950Y-84239729D01*
X155693726Y-84178938D01*
X155591774Y-84121216D01*
X155495721Y-84066918D01*
X155406196Y-84016395D01*
X155323828Y-83970004D01*
X155249247Y-83928097D01*
X155183081Y-83891028D01*
X155125959Y-83859152D01*
X155078509Y-83832823D01*
X155041361Y-83812393D01*
X155015143Y-83798218D01*
X155000485Y-83790651D01*
X154997447Y-83789450D01*
X154994299Y-83797630D01*
X154987862Y-83817757D01*
X154978745Y-83847799D01*
X154967561Y-83885724D01*
X154954920Y-83929499D01*
X154947431Y-83955813D01*
X154932616Y-84007708D01*
X154920990Y-84047127D01*
X154911982Y-84075609D01*
X154905016Y-84094696D01*
X154899518Y-84105929D01*
X154894915Y-84110849D01*
X154890632Y-84110995D01*
X154889763Y-84110587D01*
X154880814Y-84106380D01*
X154859636Y-84096741D01*
X154827115Y-84082063D01*
X154784139Y-84062743D01*
X154731594Y-84039176D01*
X154670367Y-84011756D01*
X154601345Y-83980878D01*
X154525414Y-83946938D01*
X154443462Y-83910331D01*
X154356376Y-83871452D01*
X154265041Y-83830695D01*
X154170346Y-83788457D01*
X154073176Y-83745132D01*
X153974419Y-83701114D01*
X153874961Y-83656800D01*
X153775689Y-83612585D01*
X153677491Y-83568862D01*
X153581252Y-83526028D01*
X153487860Y-83484478D01*
X153398201Y-83444606D01*
X153313163Y-83406807D01*
X153233632Y-83371478D01*
X153160495Y-83339012D01*
X153094638Y-83309805D01*
X153036949Y-83284252D01*
X152988314Y-83262748D01*
X152949621Y-83245689D01*
X152921756Y-83233468D01*
X152905605Y-83226482D01*
X152901720Y-83224914D01*
X152899729Y-83231807D01*
%TD*%
M02*
