%TF.GenerationSoftware,KiCad,Pcbnew,(5.1.10)-1*%
%TF.CreationDate,2022-01-11T17:46:35-08:00*%
%TF.ProjectId,lowering platform,6c6f7765-7269-46e6-9720-706c6174666f,rev?*%
%TF.SameCoordinates,Original*%
%TF.FileFunction,Copper,L2,Bot*%
%TF.FilePolarity,Positive*%
%FSLAX46Y46*%
G04 Gerber Fmt 4.6, Leading zero omitted, Abs format (unit mm)*
G04 Created by KiCad (PCBNEW (5.1.10)-1) date 2022-01-11 17:46:35*
%MOMM*%
%LPD*%
G01*
G04 APERTURE LIST*
%TA.AperFunction,ComponentPad*%
%ADD10R,1.700000X1.700000*%
%TD*%
%TA.AperFunction,ComponentPad*%
%ADD11O,1.700000X1.700000*%
%TD*%
%TA.AperFunction,ComponentPad*%
%ADD12R,3.000000X3.000000*%
%TD*%
%TA.AperFunction,ComponentPad*%
%ADD13C,3.000000*%
%TD*%
%TA.AperFunction,ComponentPad*%
%ADD14R,1.905000X2.000000*%
%TD*%
%TA.AperFunction,ComponentPad*%
%ADD15O,1.905000X2.000000*%
%TD*%
%TA.AperFunction,ViaPad*%
%ADD16C,5.000000*%
%TD*%
%TA.AperFunction,Conductor*%
%ADD17C,2.030000*%
%TD*%
%TA.AperFunction,Conductor*%
%ADD18C,2.760000*%
%TD*%
%TA.AperFunction,Conductor*%
%ADD19C,2.400000*%
%TD*%
%TA.AperFunction,Conductor*%
%ADD20C,0.250000*%
%TD*%
%TA.AperFunction,Conductor*%
%ADD21C,2.790000*%
%TD*%
G04 APERTURE END LIST*
D10*
%TO.P,J2,1*%
%TO.N,COM*%
X146050000Y-90170000D03*
D11*
%TO.P,J2,2*%
%TO.N,G_BRUSH*%
X146050000Y-92710000D03*
%TO.P,J2,3*%
%TO.N,G_LIGHT*%
X146050000Y-95250000D03*
%TD*%
D12*
%TO.P,J1,1*%
%TO.N,COM*%
X143510000Y-109220000D03*
D13*
%TO.P,J1,2*%
%TO.N,+12V*%
X148590000Y-109220000D03*
%TD*%
D12*
%TO.P,J3,2*%
%TO.N,D_BRUSH*%
X149860000Y-81280000D03*
D13*
%TO.P,J3,3*%
%TO.N,+5V*%
X154940000Y-81280000D03*
%TO.P,J3,1*%
%TO.N,+12V*%
X144780000Y-81280000D03*
D12*
%TO.P,J3,4*%
%TO.N,D_LIGHT*%
X160020000Y-81280000D03*
%TD*%
D13*
%TO.P,J4,2*%
%TO.N,+5V*%
X160020000Y-109220000D03*
D12*
%TO.P,J4,1*%
%TO.N,COM*%
X154940000Y-109220000D03*
%TD*%
D14*
%TO.P,Q1,1*%
%TO.N,G_BRUSH*%
X152400000Y-92710000D03*
D15*
%TO.P,Q1,2*%
%TO.N,D_BRUSH*%
X154940000Y-92710000D03*
%TO.P,Q1,3*%
%TO.N,COM*%
X157480000Y-92710000D03*
%TD*%
%TO.P,Q2,3*%
%TO.N,COM*%
X157480000Y-100330000D03*
%TO.P,Q2,2*%
%TO.N,D_LIGHT*%
X154940000Y-100330000D03*
D14*
%TO.P,Q2,1*%
%TO.N,G_LIGHT*%
X152400000Y-100330000D03*
%TD*%
D16*
%TO.N,*%
X144780000Y-101000000D03*
%TD*%
D17*
%TO.N,D_BRUSH*%
X154940000Y-92710000D02*
X155500000Y-90170000D01*
D18*
%TO.N,+12V*%
X144780000Y-81280000D02*
X144780000Y-85090000D01*
X144780000Y-85090000D02*
X148590000Y-88900000D01*
X148590000Y-88900000D02*
X148590000Y-109220000D01*
D17*
%TO.N,D_BRUSH*%
X154940000Y-92710000D02*
X154940000Y-90170000D01*
D18*
X149860000Y-85090000D02*
X149860000Y-81280000D01*
X154940000Y-90170000D02*
X149860000Y-85090000D01*
D19*
%TO.N,D_LIGHT*%
X154940000Y-100330000D02*
X154700000Y-97790000D01*
D20*
X161290000Y-82550000D02*
X160020000Y-81280000D01*
D21*
X160020000Y-81280000D02*
X162560000Y-83820000D01*
X162560000Y-95250000D02*
X162560000Y-83820000D01*
D19*
X154940000Y-100330000D02*
X154940000Y-97790000D01*
D21*
X154940000Y-97790000D02*
X156210000Y-96520000D01*
X156210000Y-96520000D02*
X161290000Y-96520000D01*
X161290000Y-96520000D02*
X162560000Y-95250000D01*
%TD*%
M02*
