%TF.GenerationSoftware,KiCad,Pcbnew,(5.1.10)-1*%
%TF.CreationDate,2022-01-11T17:46:35-08:00*%
%TF.ProjectId,lowering platform,6c6f7765-7269-46e6-9720-706c6174666f,rev?*%
%TF.SameCoordinates,Original*%
%TF.FileFunction,Copper,L1,Top*%
%TF.FilePolarity,Positive*%
%FSLAX46Y46*%
G04 Gerber Fmt 4.6, Leading zero omitted, Abs format (unit mm)*
G04 Created by KiCad (PCBNEW (5.1.10)-1) date 2022-01-11 17:46:35*
%MOMM*%
%LPD*%
G01*
G04 APERTURE LIST*
%TA.AperFunction,ComponentPad*%
%ADD10R,1.700000X1.700000*%
%TD*%
%TA.AperFunction,ComponentPad*%
%ADD11O,1.700000X1.700000*%
%TD*%
%TA.AperFunction,ComponentPad*%
%ADD12R,3.000000X3.000000*%
%TD*%
%TA.AperFunction,ComponentPad*%
%ADD13C,3.000000*%
%TD*%
%TA.AperFunction,ComponentPad*%
%ADD14R,1.905000X2.000000*%
%TD*%
%TA.AperFunction,ComponentPad*%
%ADD15O,1.905000X2.000000*%
%TD*%
%TA.AperFunction,ViaPad*%
%ADD16C,5.000000*%
%TD*%
%TA.AperFunction,Conductor*%
%ADD17C,0.250000*%
%TD*%
%TA.AperFunction,Conductor*%
%ADD18C,2.790000*%
%TD*%
%TA.AperFunction,Conductor*%
%ADD19C,2.760000*%
%TD*%
G04 APERTURE END LIST*
D10*
%TO.P,J2,1*%
%TO.N,COM*%
X146050000Y-90170000D03*
D11*
%TO.P,J2,2*%
%TO.N,G_BRUSH*%
X146050000Y-92710000D03*
%TO.P,J2,3*%
%TO.N,G_LIGHT*%
X146050000Y-95250000D03*
%TD*%
D12*
%TO.P,J1,1*%
%TO.N,COM*%
X143510000Y-109220000D03*
D13*
%TO.P,J1,2*%
%TO.N,+12V*%
X148590000Y-109220000D03*
%TD*%
D12*
%TO.P,J3,2*%
%TO.N,D_BRUSH*%
X149860000Y-81280000D03*
D13*
%TO.P,J3,3*%
%TO.N,+5V*%
X154940000Y-81280000D03*
%TO.P,J3,1*%
%TO.N,+12V*%
X144780000Y-81280000D03*
D12*
%TO.P,J3,4*%
%TO.N,D_LIGHT*%
X160020000Y-81280000D03*
%TD*%
D13*
%TO.P,J4,2*%
%TO.N,+5V*%
X160020000Y-109220000D03*
D12*
%TO.P,J4,1*%
%TO.N,COM*%
X154940000Y-109220000D03*
%TD*%
D14*
%TO.P,Q1,1*%
%TO.N,G_BRUSH*%
X152400000Y-92710000D03*
D15*
%TO.P,Q1,2*%
%TO.N,D_BRUSH*%
X154940000Y-92710000D03*
%TO.P,Q1,3*%
%TO.N,COM*%
X157480000Y-92710000D03*
%TD*%
%TO.P,Q2,3*%
%TO.N,COM*%
X157480000Y-100330000D03*
%TO.P,Q2,2*%
%TO.N,D_LIGHT*%
X154940000Y-100330000D03*
D14*
%TO.P,Q2,1*%
%TO.N,G_LIGHT*%
X152400000Y-100330000D03*
%TD*%
%TO.P,R1,1*%
%TO.N,G_BRUSH*%
%TA.AperFunction,SMDPad,CuDef*%
G36*
G01*
X151887500Y-89350002D02*
X151887500Y-88449998D01*
G75*
G02*
X152137498Y-88200000I249998J0D01*
G01*
X152662502Y-88200000D01*
G75*
G02*
X152912500Y-88449998I0J-249998D01*
G01*
X152912500Y-89350002D01*
G75*
G02*
X152662502Y-89600000I-249998J0D01*
G01*
X152137498Y-89600000D01*
G75*
G02*
X151887500Y-89350002I0J249998D01*
G01*
G37*
%TD.AperFunction*%
%TO.P,R1,2*%
%TO.N,COM*%
%TA.AperFunction,SMDPad,CuDef*%
G36*
G01*
X153712500Y-89350002D02*
X153712500Y-88449998D01*
G75*
G02*
X153962498Y-88200000I249998J0D01*
G01*
X154487502Y-88200000D01*
G75*
G02*
X154737500Y-88449998I0J-249998D01*
G01*
X154737500Y-89350002D01*
G75*
G02*
X154487502Y-89600000I-249998J0D01*
G01*
X153962498Y-89600000D01*
G75*
G02*
X153712500Y-89350002I0J249998D01*
G01*
G37*
%TD.AperFunction*%
%TD*%
%TO.P,R2,2*%
%TO.N,COM*%
%TA.AperFunction,SMDPad,CuDef*%
G36*
G01*
X153712500Y-96970002D02*
X153712500Y-96069998D01*
G75*
G02*
X153962498Y-95820000I249998J0D01*
G01*
X154487502Y-95820000D01*
G75*
G02*
X154737500Y-96069998I0J-249998D01*
G01*
X154737500Y-96970002D01*
G75*
G02*
X154487502Y-97220000I-249998J0D01*
G01*
X153962498Y-97220000D01*
G75*
G02*
X153712500Y-96970002I0J249998D01*
G01*
G37*
%TD.AperFunction*%
%TO.P,R2,1*%
%TO.N,G_LIGHT*%
%TA.AperFunction,SMDPad,CuDef*%
G36*
G01*
X151887500Y-96970002D02*
X151887500Y-96069998D01*
G75*
G02*
X152137498Y-95820000I249998J0D01*
G01*
X152662502Y-95820000D01*
G75*
G02*
X152912500Y-96069998I0J-249998D01*
G01*
X152912500Y-96970002D01*
G75*
G02*
X152662502Y-97220000I-249998J0D01*
G01*
X152137498Y-97220000D01*
G75*
G02*
X151887500Y-96970002I0J249998D01*
G01*
G37*
%TD.AperFunction*%
%TD*%
D16*
%TO.N,*%
X144780000Y-101000000D03*
%TD*%
D17*
%TO.N,COM*%
X157480000Y-92710000D02*
X157480000Y-92155000D01*
D18*
X154940000Y-109220000D02*
X158750000Y-105410000D01*
X159000000Y-101600000D02*
X157700000Y-100330000D01*
X143510000Y-109220000D02*
X143510000Y-111760000D01*
X154940000Y-111760000D02*
X154940000Y-109220000D01*
X153670000Y-113030000D02*
X154940000Y-111760000D01*
X144780000Y-113030000D02*
X153670000Y-113030000D01*
X143510000Y-111760000D02*
X144780000Y-113030000D01*
D17*
X159000000Y-105160000D02*
X158750000Y-105410000D01*
D18*
X159000000Y-101600000D02*
X159000000Y-105160000D01*
D19*
X157750000Y-100330000D02*
X157750000Y-92710000D01*
D17*
X146050000Y-87630000D02*
X146050000Y-90170000D01*
X154225000Y-86915000D02*
X153670000Y-86360000D01*
X154225000Y-88900000D02*
X154225000Y-86915000D01*
X147320000Y-86360000D02*
X146050000Y-87630000D01*
X153670000Y-86360000D02*
X147320000Y-86360000D01*
X157480000Y-92155000D02*
X154225000Y-88900000D01*
X156210000Y-96520000D02*
X157480000Y-97790000D01*
X154225000Y-96520000D02*
X156210000Y-96520000D01*
%TO.N,G_BRUSH*%
X152400000Y-92710000D02*
X152400000Y-88900000D01*
X146050000Y-92710000D02*
X152400000Y-92710000D01*
D18*
%TO.N,+5V*%
X154940000Y-81280000D02*
X154940000Y-83820000D01*
X154940000Y-83820000D02*
X162560000Y-91440000D01*
X162560000Y-106680000D02*
X160020000Y-109220000D01*
X162560000Y-91440000D02*
X162560000Y-106680000D01*
D17*
%TO.N,G_LIGHT*%
X152400000Y-96520000D02*
X152400000Y-100330000D01*
X151130000Y-95250000D02*
X152400000Y-96520000D01*
X146050000Y-95250000D02*
X151130000Y-95250000D01*
%TD*%
M02*
