%TF.GenerationSoftware,KiCad,Pcbnew,(5.1.10)-1*%
%TF.CreationDate,2022-01-11T17:46:35-08:00*%
%TF.ProjectId,lowering platform,6c6f7765-7269-46e6-9720-706c6174666f,rev?*%
%TF.SameCoordinates,Original*%
%TF.FileFunction,Legend,Top*%
%TF.FilePolarity,Positive*%
%FSLAX46Y46*%
G04 Gerber Fmt 4.6, Leading zero omitted, Abs format (unit mm)*
G04 Created by KiCad (PCBNEW (5.1.10)-1) date 2022-01-11 17:46:35*
%MOMM*%
%LPD*%
G01*
G04 APERTURE LIST*
%ADD10C,0.120000*%
%ADD11C,0.150000*%
G04 APERTURE END LIST*
D10*
%TO.C,J2*%
X146050000Y-88840000D02*
X147380000Y-88840000D01*
X147380000Y-88840000D02*
X147380000Y-90170000D01*
X147380000Y-91440000D02*
X147380000Y-96580000D01*
X144720000Y-96580000D02*
X147380000Y-96580000D01*
X144720000Y-91440000D02*
X144720000Y-96580000D01*
X144720000Y-91440000D02*
X147380000Y-91440000D01*
%TO.C,J1*%
X140970000Y-113030000D02*
X151130000Y-113030000D01*
X140970000Y-105410000D02*
X140970000Y-113030000D01*
X151130000Y-105410000D02*
X140970000Y-105410000D01*
X151130000Y-113030000D02*
X151130000Y-105410000D01*
X151130000Y-111760000D02*
X140970000Y-111760000D01*
%TO.C,J3*%
X142240000Y-77470000D02*
X142240000Y-85090000D01*
X162560000Y-85090000D02*
X162560000Y-77470000D01*
X162560000Y-83820000D02*
X142240000Y-83820000D01*
X142240000Y-77470000D02*
X162560000Y-77470000D01*
X142240000Y-85090000D02*
X162560000Y-85090000D01*
%TO.C,J4*%
X162560000Y-111760000D02*
X152400000Y-111760000D01*
X162560000Y-113030000D02*
X162560000Y-105410000D01*
X162560000Y-105410000D02*
X152400000Y-105410000D01*
X152400000Y-105410000D02*
X152400000Y-113030000D01*
X152400000Y-113030000D02*
X162560000Y-113030000D01*
%TO.C,Q1*%
X156791000Y-89440000D02*
X156791000Y-90950000D01*
X153090000Y-89440000D02*
X153090000Y-90950000D01*
X149820000Y-90950000D02*
X160060000Y-90950000D01*
X160060000Y-89440000D02*
X160060000Y-94081000D01*
X149820000Y-89440000D02*
X149820000Y-94081000D01*
X149820000Y-94081000D02*
X160060000Y-94081000D01*
X149820000Y-89440000D02*
X160060000Y-89440000D01*
%TO.C,Q2*%
X149820000Y-97060000D02*
X160060000Y-97060000D01*
X149820000Y-101701000D02*
X160060000Y-101701000D01*
X149820000Y-97060000D02*
X149820000Y-101701000D01*
X160060000Y-97060000D02*
X160060000Y-101701000D01*
X149820000Y-98570000D02*
X160060000Y-98570000D01*
X153090000Y-97060000D02*
X153090000Y-98570000D01*
X156791000Y-97060000D02*
X156791000Y-98570000D01*
%TO.C,R1*%
X153085436Y-89635000D02*
X153539564Y-89635000D01*
X153085436Y-88165000D02*
X153539564Y-88165000D01*
%TO.C,R2*%
X153085436Y-95785000D02*
X153539564Y-95785000D01*
X153085436Y-97255000D02*
X153539564Y-97255000D01*
%TO.C,J2*%
D11*
X145716666Y-86852380D02*
X145716666Y-87566666D01*
X145669047Y-87709523D01*
X145573809Y-87804761D01*
X145430952Y-87852380D01*
X145335714Y-87852380D01*
X146145238Y-86947619D02*
X146192857Y-86900000D01*
X146288095Y-86852380D01*
X146526190Y-86852380D01*
X146621428Y-86900000D01*
X146669047Y-86947619D01*
X146716666Y-87042857D01*
X146716666Y-87138095D01*
X146669047Y-87280952D01*
X146097619Y-87852380D01*
X146716666Y-87852380D01*
%TO.C,J1*%
X145716666Y-103592380D02*
X145716666Y-104306666D01*
X145669047Y-104449523D01*
X145573809Y-104544761D01*
X145430952Y-104592380D01*
X145335714Y-104592380D01*
X146716666Y-104592380D02*
X146145238Y-104592380D01*
X146430952Y-104592380D02*
X146430952Y-103592380D01*
X146335714Y-103735238D01*
X146240476Y-103830476D01*
X146145238Y-103878095D01*
%TO.C,J3*%
X152046666Y-75932380D02*
X152046666Y-76646666D01*
X151999047Y-76789523D01*
X151903809Y-76884761D01*
X151760952Y-76932380D01*
X151665714Y-76932380D01*
X152427619Y-75932380D02*
X153046666Y-75932380D01*
X152713333Y-76313333D01*
X152856190Y-76313333D01*
X152951428Y-76360952D01*
X152999047Y-76408571D01*
X153046666Y-76503809D01*
X153046666Y-76741904D01*
X152999047Y-76837142D01*
X152951428Y-76884761D01*
X152856190Y-76932380D01*
X152570476Y-76932380D01*
X152475238Y-76884761D01*
X152427619Y-76837142D01*
%TO.C,J4*%
X157146666Y-103592380D02*
X157146666Y-104306666D01*
X157099047Y-104449523D01*
X157003809Y-104544761D01*
X156860952Y-104592380D01*
X156765714Y-104592380D01*
X158051428Y-103925714D02*
X158051428Y-104592380D01*
X157813333Y-103544761D02*
X157575238Y-104259047D01*
X158194285Y-104259047D01*
%TO.C,Q1*%
X158654761Y-88987619D02*
X158559523Y-88940000D01*
X158464285Y-88844761D01*
X158321428Y-88701904D01*
X158226190Y-88654285D01*
X158130952Y-88654285D01*
X158178571Y-88892380D02*
X158083333Y-88844761D01*
X157988095Y-88749523D01*
X157940476Y-88559047D01*
X157940476Y-88225714D01*
X157988095Y-88035238D01*
X158083333Y-87940000D01*
X158178571Y-87892380D01*
X158369047Y-87892380D01*
X158464285Y-87940000D01*
X158559523Y-88035238D01*
X158607142Y-88225714D01*
X158607142Y-88559047D01*
X158559523Y-88749523D01*
X158464285Y-88844761D01*
X158369047Y-88892380D01*
X158178571Y-88892380D01*
X159559523Y-88892380D02*
X158988095Y-88892380D01*
X159273809Y-88892380D02*
X159273809Y-87892380D01*
X159178571Y-88035238D01*
X159083333Y-88130476D01*
X158988095Y-88178095D01*
%TO.C,Q2*%
X158654761Y-96607619D02*
X158559523Y-96560000D01*
X158464285Y-96464761D01*
X158321428Y-96321904D01*
X158226190Y-96274285D01*
X158130952Y-96274285D01*
X158178571Y-96512380D02*
X158083333Y-96464761D01*
X157988095Y-96369523D01*
X157940476Y-96179047D01*
X157940476Y-95845714D01*
X157988095Y-95655238D01*
X158083333Y-95560000D01*
X158178571Y-95512380D01*
X158369047Y-95512380D01*
X158464285Y-95560000D01*
X158559523Y-95655238D01*
X158607142Y-95845714D01*
X158607142Y-96179047D01*
X158559523Y-96369523D01*
X158464285Y-96464761D01*
X158369047Y-96512380D01*
X158178571Y-96512380D01*
X158988095Y-95607619D02*
X159035714Y-95560000D01*
X159130952Y-95512380D01*
X159369047Y-95512380D01*
X159464285Y-95560000D01*
X159511904Y-95607619D01*
X159559523Y-95702857D01*
X159559523Y-95798095D01*
X159511904Y-95940952D01*
X158940476Y-96512380D01*
X159559523Y-96512380D01*
%TO.C,R1*%
X153145833Y-87702380D02*
X152812500Y-87226190D01*
X152574404Y-87702380D02*
X152574404Y-86702380D01*
X152955357Y-86702380D01*
X153050595Y-86750000D01*
X153098214Y-86797619D01*
X153145833Y-86892857D01*
X153145833Y-87035714D01*
X153098214Y-87130952D01*
X153050595Y-87178571D01*
X152955357Y-87226190D01*
X152574404Y-87226190D01*
X154098214Y-87702380D02*
X153526785Y-87702380D01*
X153812500Y-87702380D02*
X153812500Y-86702380D01*
X153717261Y-86845238D01*
X153622023Y-86940476D01*
X153526785Y-86988095D01*
%TO.C,R2*%
X153145833Y-95322380D02*
X152812500Y-94846190D01*
X152574404Y-95322380D02*
X152574404Y-94322380D01*
X152955357Y-94322380D01*
X153050595Y-94370000D01*
X153098214Y-94417619D01*
X153145833Y-94512857D01*
X153145833Y-94655714D01*
X153098214Y-94750952D01*
X153050595Y-94798571D01*
X152955357Y-94846190D01*
X152574404Y-94846190D01*
X153526785Y-94417619D02*
X153574404Y-94370000D01*
X153669642Y-94322380D01*
X153907738Y-94322380D01*
X154002976Y-94370000D01*
X154050595Y-94417619D01*
X154098214Y-94512857D01*
X154098214Y-94608095D01*
X154050595Y-94750952D01*
X153479166Y-95322380D01*
X154098214Y-95322380D01*
%TD*%
M02*
